<?xml version="1.0" encoding="UTF-8" standalone="no"?>
<!DOCTYPE svg PUBLIC "-//W3C//DTD SVG 1.1//EN" "http://www.w3.org/Graphics/SVG/1.1/DTD/svg11.dtd">
<svg width="100%" height="100%" viewBox="0 0 1751 2469" version="1.1" xmlns="http://www.w3.org/2000/svg" xmlns:xlink="http://www.w3.org/1999/xlink" xml:space="preserve" xmlns:serif="http://www.serif.com/" style="fill-rule:evenodd;clip-rule:evenodd;stroke-linejoin:round;stroke-miterlimit:2;">
    <g transform="matrix(1,0,0,1,-15785.4,0)">
        <g id="Page-4" serif:id="Page 4" transform="matrix(5.55556,0,0,6.37718,15785.4,0)">
            <rect x="0" y="0" width="315.174" height="387.037" style="fill:none;"/>
            <g id="Layer-2" serif:id="Layer 2" transform="matrix(1,0,0,0.871161,-4.54747e-13,0)">
                <g transform="matrix(1,0,0,1,37.1108,394)">
                    <path d="M0,-57.071C2.146,-57.071 4.791,-57.162 7.939,-57.349C11.084,-57.532 14.471,-57.627 18.099,-57.627C24.835,-57.627 28.351,-57.403 28.647,-56.959C28.795,-56.664 28.869,-56.441 28.869,-56.295C28.869,-55.702 28.554,-55.089 27.926,-54.462C27.297,-53.831 26.649,-53.52 25.983,-53.52C25.833,-53.52 25.611,-53.591 25.316,-53.74C25.167,-53.889 23.318,-53.964 19.766,-53.964C9.622,-53.964 4.403,-53.74 4.108,-53.296C3.959,-52.998 3.887,-50.111 3.887,-44.634C3.887,-38.935 3.7,-35.086 3.331,-33.086C3.108,-31.31 2.999,-29.606 2.999,-27.98C2.999,-27.017 2.924,-24.981 2.776,-21.873C2.7,-21.056 2.59,-16.726 2.443,-8.881C2.368,-3.253 2.109,-0.22 1.665,0.224C1.369,0.448 0.925,0.556 0.333,0.556C-0.26,0.556 -0.705,0.299 -1,-0.22C-1.297,-0.735 -1.443,-1.921 -1.443,-3.771C-1.443,-5.475 -1.332,-7.288 -1.11,-9.213C-0.666,-12.619 -0.26,-19.169 0.111,-28.867C0.259,-32.717 0.333,-37.675 0.333,-43.747L0.333,-53.628L-1,-53.52C-1.593,-53.52 -4.663,-53.147 -10.215,-52.408C-10.512,-52.334 -12.215,-52.147 -15.323,-51.852C-16.952,-51.703 -17.877,-51.629 -18.099,-51.629C-19.507,-51.629 -20.208,-52.147 -20.208,-53.184C-20.208,-53.923 -19.97,-54.407 -19.486,-54.628C-19.007,-54.851 -18.026,-54.963 -16.545,-54.963C-14.474,-54.963 -12.992,-55.071 -12.103,-55.295C-6.774,-56.478 -2.74,-57.071 0,-57.071" style="fill:rgb(25,47,96);fill-rule:nonzero;"/>
                </g>
                <g transform="matrix(1,0,0,1,98.9585,378.273)">
                    <path d="M0,-30.907C0,-30.978 -0.427,-31.924 -1.276,-33.737C-2.128,-35.553 -2.593,-36.457 -2.665,-36.457C-2.962,-36.457 -3.536,-35.421 -4.385,-33.35C-5.237,-31.276 -5.663,-29.87 -5.663,-29.131C-5.663,-28.907 -6.146,-27.613 -7.106,-25.244C-8.068,-23.022 -9.032,-20.283 -9.993,-17.027C-10.956,-13.767 -11.437,-11.622 -11.437,-10.585C-11.437,-9.772 -7.478,-9.365 0.443,-9.365C2.443,-9.365 3.812,-9.403 4.553,-9.477C6.181,-9.623 7.162,-9.755 7.495,-9.864C7.827,-9.975 7.995,-10.253 7.995,-10.697C7.995,-11.216 7.29,-13.029 5.886,-16.139C4.848,-18.433 3.608,-21.395 2.165,-25.021C0.722,-28.647 0,-30.609 0,-30.907M-8.884,-29.796C-8.884,-30.09 -8.55,-31.185 -7.884,-33.072C-7.218,-34.96 -6.884,-36.088 -6.884,-36.457C-6.884,-37.196 -6.662,-38.05 -6.219,-39.012C-5.774,-39.975 -5.405,-40.456 -5.106,-40.456C-4.812,-40.456 -4.405,-40.714 -3.887,-41.232C-3.294,-41.825 -2.628,-42.083 -1.888,-42.011C-1.297,-41.937 -0.832,-41.639 -0.5,-41.124C-0.166,-40.602 0.517,-39.124 1.555,-36.681C3.182,-33.126 3.997,-31.202 3.997,-30.907C3.997,-30.388 4.774,-28.24 6.33,-24.465C7.068,-22.69 7.699,-21.08 8.217,-19.636C8.734,-18.193 9.196,-16.952 9.604,-15.916C10.012,-14.879 10.621,-13.547 11.437,-11.92C11.955,-10.955 12.751,-9.199 13.823,-6.644C14.896,-4.089 15.692,-2.33 16.211,-1.371L18.322,2.627C19.801,5.29 20.689,6.775 20.985,7.07C21.356,7.588 21.541,8.252 21.541,9.069C21.541,9.807 21.393,10.326 21.098,10.621C20.727,10.993 20.319,11.176 19.876,11.176C19.21,11.176 18.544,10.882 17.877,10.289C17.211,9.696 16.767,8.957 16.545,8.069C16.471,7.625 15.879,6.219 14.768,3.847C14.396,3.183 13.823,2.034 13.048,0.407C12.27,-1.222 11.771,-2.26 11.548,-2.703L9.771,-6.255L5.33,-5.923C2.221,-5.773 0.111,-5.702 -1,-5.702C-3.592,-5.702 -5.293,-5.848 -6.106,-6.146C-6.996,-6.366 -8.068,-6.478 -9.327,-6.478C-11.104,-6.478 -12.178,-6.329 -12.547,-6.034C-12.843,-5.811 -13.49,-4.201 -14.49,-1.202C-15.489,1.793 -15.989,3.59 -15.989,4.182C-15.989,4.331 -16.286,5.219 -16.877,6.846C-17.248,7.883 -17.526,8.513 -17.711,8.733C-17.896,8.957 -18.285,9.031 -18.877,8.957C-20.061,8.883 -20.654,8.439 -20.654,7.625C-20.654,7.181 -20.542,6.734 -20.32,6.29C-19.581,4.664 -18.617,1.739 -17.433,-2.48C-16.916,-4.405 -16.083,-7.2 -14.934,-10.863C-13.789,-14.53 -13.142,-16.655 -12.992,-17.247C-12.992,-17.322 -12.308,-19.247 -10.938,-23.022C-9.568,-26.797 -8.884,-29.057 -8.884,-29.796" style="fill:rgb(25,47,96);fill-rule:nonzero;"/>
                </g>
                <g transform="matrix(1,0,0,1,147.26,390.224)">
                    <path d="M0,-55.071C1.626,-55.22 2.7,-55.295 3.219,-55.295L3.663,-55.295C4.699,-55.071 5.218,-54.407 5.218,-53.296C5.218,-52.258 4.774,-51.632 3.887,-51.408C2.999,-51.259 1.887,-51.222 0.556,-51.296C-1.074,-51.446 -1.925,-51.446 -2,-51.296C-2.148,-51.076 -2.314,-47.301 -2.498,-39.971C-2.685,-32.642 -2.775,-26.942 -2.775,-22.872C-2.775,-18.43 -2.593,-14.617 -2.22,-11.436C-2,-9.213 -1.888,-7.437 -1.888,-6.105L-1.888,-5.326C-1.962,-4.733 -1.776,-4.438 -1.332,-4.438C2.219,-4.363 4.293,-4.069 4.886,-3.55C5.106,-3.33 5.736,-2.957 6.773,-2.439C7.661,-2.07 8.105,-1.551 8.105,-0.887C8.105,-0.145 7.4,0.224 5.997,0.224C5.849,0.224 5.662,0.208 5.441,0.17C5.218,0.133 5.069,0.113 4.998,0.113C3.663,-0.033 0.593,-0.108 -4.219,-0.108C-7.773,-0.108 -9.958,-0.145 -10.771,-0.219C-11.586,-0.294 -12.142,-0.514 -12.437,-0.887C-12.881,-1.402 -12.92,-2.032 -12.547,-2.774C-12.252,-3.289 -11.899,-3.605 -11.493,-3.717C-11.086,-3.828 -10.255,-3.883 -8.994,-3.883C-7.218,-3.883 -6.219,-3.994 -5.995,-4.218C-5.7,-4.513 -5.551,-16.43 -5.551,-39.971C-5.551,-46.335 -5.592,-49.67 -5.663,-49.965C-5.737,-50.408 -5.887,-50.666 -6.106,-50.74C-6.33,-50.815 -6.812,-50.778 -7.55,-50.632C-9.181,-50.408 -10.659,-50.297 -11.993,-50.297C-13.103,-50.297 -13.769,-50.408 -13.99,-50.632C-14.287,-50.927 -14.38,-51.425 -14.269,-52.13C-14.158,-52.831 -13.918,-53.258 -13.547,-53.407C-12.067,-53.777 -7.55,-54.332 0,-55.071" style="fill:rgb(25,47,96);fill-rule:nonzero;"/>
                </g>
                <g transform="matrix(1,0,0,1,175.02,370.575)">
                    <path d="M0,-3.111C3.401,-3.406 5.588,-3.555 6.55,-3.555C8.475,-3.555 9.62,-3.369 9.992,-2.999C10.216,-2.779 10.325,-2.406 10.325,-1.888C10.325,-0.779 10.067,-0.038 9.549,0.332C9.475,0.407 9.03,0.444 8.217,0.444C6.661,0.444 5.367,0.407 4.33,0.332C3.887,0.332 3.202,0.315 2.276,0.278C1.349,0.24 0.701,0.22 0.332,0.22C-0.112,0.22 -0.685,0.24 -1.39,0.278C-2.095,0.315 -2.519,0.332 -2.667,0.332C-3.186,0.407 -3.887,0.444 -4.775,0.444C-6.625,0.444 -7.551,-0.112 -7.551,-1.224C-7.551,-2.481 -6.405,-3.111 -4.107,-3.111L0,-3.111Z" style="fill:rgb(25,47,96);fill-rule:nonzero;"/>
                </g>
                <g transform="matrix(1,0,0,1,228.428,385.229)">
                    <path d="M0,-45.637C-1.108,-46.301 -1.942,-46.691 -2.498,-46.803C-3.054,-46.914 -4.257,-46.969 -6.106,-46.969C-8.919,-46.969 -10.881,-46.783 -11.993,-46.413C-13.545,-45.894 -14.585,-45.562 -15.101,-45.413C-16.876,-44.895 -18.377,-43.953 -19.597,-42.584C-20.82,-41.211 -22.28,-38.975 -23.985,-35.864C-26.577,-31.053 -27.868,-25.983 -27.868,-20.653C-27.868,-19.097 -27.686,-17.505 -27.316,-15.878C-26.205,-11.659 -24.06,-7.992 -20.874,-4.885C-18.58,-2.588 -16.378,-0.961 -14.267,0.001C-12.159,0.964 -9.698,1.445 -6.883,1.445L-6.327,1.445C-0.187,1.296 4.442,-0.257 7.553,-3.218C9.475,-4.997 11.361,-8.918 13.216,-14.99C13.88,-16.99 14.215,-18.504 14.215,-19.541C14.215,-20.578 14.141,-21.54 13.991,-22.428C13.324,-27.386 12.327,-31.273 10.992,-34.089C10.179,-35.79 8.919,-37.698 7.218,-39.805C5.513,-41.916 4.069,-43.305 2.887,-43.97C2.442,-44.194 1.48,-44.749 0,-45.637M-20.099,-47.301C-18.987,-48.189 -16.95,-49.002 -13.988,-49.744C-11.03,-50.483 -8.218,-50.856 -5.551,-50.856C-4.145,-50.856 -2.962,-50.743 -2,-50.52C0.074,-50.151 2.442,-49.039 5.109,-47.189C6.292,-46.376 7.679,-45.153 9.271,-43.526C10.863,-41.896 11.66,-40.863 11.66,-40.419C11.66,-40.12 11.918,-39.714 12.436,-39.195C13.029,-38.677 13.714,-37.657 14.493,-36.142C15.269,-34.624 15.658,-33.57 15.658,-32.977C15.658,-32.384 15.805,-31.459 16.103,-30.202C16.397,-28.941 16.655,-28.165 16.879,-27.87C17.396,-27.203 17.654,-24.241 17.654,-18.986C17.654,-18.321 17.027,-16.024 15.767,-12.103C14.51,-8.179 13.398,-5.624 12.436,-4.441C11.029,-2.737 10.142,-1.517 9.772,-0.775C8.956,0.557 7.218,1.777 4.554,2.888C1.887,4 -0.37,4.552 -2.22,4.552C-3.183,4.552 -3.701,4.664 -3.775,4.887C-3.995,5.108 -4.7,5.219 -5.883,5.219C-8.181,5.219 -10.105,4.962 -11.657,4.444C-14.324,3.631 -16.398,2.739 -17.875,1.777C-19.359,0.818 -21.098,-0.666 -23.094,-2.662C-25.835,-5.4 -27.777,-8.121 -28.926,-10.825C-30.074,-13.526 -30.756,-16.878 -30.979,-20.873C-31.054,-21.69 -31.091,-22.686 -31.091,-23.872C-31.091,-25.278 -30.83,-26.871 -30.312,-28.646C-28.834,-33.604 -27.425,-37.196 -26.093,-39.419C-25.724,-40.009 -25.371,-40.676 -25.039,-41.415C-24.707,-42.157 -24.466,-42.676 -24.317,-42.97C-24.168,-43.265 -23.928,-43.637 -23.596,-44.082C-23.264,-44.526 -22.819,-44.987 -22.264,-45.471C-21.708,-45.949 -20.986,-46.562 -20.099,-47.301" style="fill:rgb(25,47,96);fill-rule:nonzero;"/>
                </g>
                <g transform="matrix(1,0,0,1,294.052,388.527)">
                    <path d="M0,-51.93C0.295,-52.523 0.701,-52.781 1.224,-52.709C1.738,-52.635 2.145,-52.265 2.443,-51.598C3.257,-49.524 3.813,-33.57 4.107,-3.74L4.219,0.591L2.999,0.702C2.257,0.851 1.738,0.777 1.443,0.479C1.224,0.258 1.037,-3.445 0.888,-10.626C0.738,-17.803 0.593,-21.47 0.444,-21.618C0.295,-21.764 -1.999,-21.913 -6.438,-22.062C-7.923,-22.134 -11.104,-22.357 -15.991,-22.727C-20.874,-23.096 -24.466,-23.283 -26.76,-23.283L-28.979,-23.283L-32.423,-23.062L-32.423,-21.618C-32.423,-20.731 -32.497,-19.84 -32.646,-18.952C-32.721,-18.731 -32.866,-15.621 -33.09,-9.626C-33.311,-3.628 -33.497,-0.521 -33.646,-0.297C-33.94,0.221 -34.405,0.442 -35.032,0.367C-35.662,0.296 -36.089,-0.002 -36.31,-0.521L-36.31,-1.076C-36.384,-1.446 -36.421,-1.815 -36.421,-2.185C-36.421,-4.777 -36.272,-8.793 -35.978,-14.235C-35.683,-19.674 -35.459,-22.544 -35.31,-22.839C-35.164,-22.988 -35.09,-27.427 -35.09,-36.162C-35.09,-45.048 -34.978,-49.598 -34.754,-49.822C-34.459,-50.192 -34.053,-50.337 -33.534,-50.266C-33.016,-50.192 -32.684,-49.968 -32.534,-49.598C-32.46,-49.524 -32.331,-45.898 -32.145,-38.718C-31.962,-31.537 -31.867,-27.688 -31.867,-27.169C-31.796,-26.874 -31.017,-26.725 -29.535,-26.725L-27.428,-26.725C-24.171,-26.725 -20.766,-26.539 -17.211,-26.17C-14.324,-25.875 -10.399,-25.725 -5.442,-25.725L0.556,-25.837L0.444,-34.275C0.295,-40.419 0.111,-44.675 -0.112,-47.047C-0.261,-48.674 -0.332,-49.636 -0.332,-49.934C-0.332,-50.968 -0.221,-51.635 0,-51.93" style="fill:rgb(25,47,96);fill-rule:nonzero;"/>
                </g>
                <g transform="matrix(1,0,0,1,106.941,208.718)">
                    <path d="M-32.14,21.9L-32.14,21.9C-32.34,21.74 -32.529,21.56 -32.72,21.39C-58.55,-2.11 -74.79,-35.99 -74.79,-73.69C-74.79,-144.61 -17.31,-202.09 53.61,-202.09C124.53,-202.09 182.011,-144.61 182.011,-73.69C182.011,-35.99 165.771,-2.11 139.931,21.39C139.74,21.56 139.551,21.74 139.351,21.9L139.351,21.9C122.561,-9.66 89.641,-21.93 69.821,-26.63L69.821,-20.78C69.821,-20.78 68.489,-19.565 66.125,-18.24C68.488,-19.565 69.82,-20.78 69.82,-20.78L69.82,-31.31C79.051,-31.31 82.24,-35.39 83.07,-36.84L80.551,-30.69C87.96,-31.31 94.171,-36.52 94.171,-36.52C94.171,-31.6 90.46,-30.13 90.46,-30.13C97.021,-29.11 103.73,-33.54 103.73,-33.54L103.73,-29.37C113.131,-29.37 115.44,-34.75 115.841,-36.06L114.21,-29.37C125.601,-29.37 130.48,-35.87 130.48,-35.87L130.48,-29.37C130.48,-29.37 157.32,-38.32 141.04,-76.19C131.53,-98.25 128.851,-111.19 128.23,-118.12C127.61,-125.24 126.24,-132.33 123.9,-139.05C122.641,-142.67 121.11,-146.19 119.261,-149.58C117.811,-152.24 116.25,-154.71 114.61,-156.99C91.561,-189.52 53.61,-188.47 53.61,-188.47C53.61,-188.47 15.65,-189.52 -7.39,-156.99C-9.029,-154.71 -10.59,-152.24 -12.04,-149.58C-13.89,-146.19 -15.42,-142.67 -16.689,-139.05C-19.02,-132.33 -20.39,-125.24 -21.01,-118.12C-21.63,-111.19 -24.31,-98.25 -33.819,-76.19C-50.1,-38.32 -23.27,-29.37 -23.27,-29.37L-23.27,-35.87C-23.27,-35.87 -18.38,-29.37 -6.989,-29.37L-8.63,-36.06C-8.229,-34.75 -5.909,-29.37 3.49,-29.37L3.49,-33.54C3.49,-33.54 10.2,-29.11 16.761,-30.13C16.761,-30.13 13.051,-31.6 13.051,-36.52C13.051,-36.52 19.25,-31.31 26.671,-30.69L24.141,-36.84C24.971,-35.39 28.171,-31.31 37.4,-31.31L37.4,-26.63C17.58,-21.93 -15.349,-9.66 -32.139,21.9L-32.14,21.9Z" style="fill:rgb(167,56,54);"/>
                </g>
                <g transform="matrix(1,0,0,1,106.941,208.718)">
                    <path d="M100.65,-79.36C100.555,-79.69 100.47,-80.022 100.393,-80.355C100.316,-80.688 100.246,-81.02 100.181,-81.35L100.397,-80.359L100.65,-79.36Z" style="fill:rgb(167,56,54);"/>
                </g>
                <g transform="matrix(1,0,0,1,106.941,208.718)">
                    <path d="M7.16,-94.13C7.12,-94.39 7.07,-94.63 7.03,-94.83C7.03,-94.88 7.021,-94.92 7.011,-94.96L7.04,-94.83L7.16,-94.13Z" style="fill:rgb(167,56,54);"/>
                </g>
                <g transform="matrix(1,0,0,1,106.941,208.718)">
                    <path d="M53.73,-135.79L56.625,-135.826L59.431,-135.9C59.451,-134.252 59.432,-134.303 59.505,-132.683L59.58,-131.61L41.851,-131.61C41.521,-133.11 41.32,-134.68 41.271,-136.25C42.218,-136.18 43.182,-136.117 44.162,-136.061L47.156,-135.919C48.172,-135.879 49.207,-135.848 50.262,-135.827L53.49,-135.79L53.73,-135.79Z" style="fill:rgb(167,56,54);"/>
                </g>
                <g transform="matrix(1,0,0,1,106.941,208.718)">
                    <path d="M100.551,-134.436C99.769,-137.251 98.877,-140.027 97.79,-142.72C103.29,-144.83 106.33,-146.76 107.221,-147.38C107.581,-146.88 107.936,-146.369 108.287,-145.848L109.324,-144.253C110.005,-143.168 110.666,-142.04 111.301,-140.87C112.524,-138.635 113.588,-136.338 114.512,-133.984L115.391,-131.61L101.301,-131.61L100.551,-134.436Z" style="fill:rgb(167,56,54);"/>
                </g>
                <g transform="matrix(1,0,0,1,106.941,208.718)">
                    <path d="M-7.292,-133.984C-6.368,-136.338 -5.305,-138.635 -4.09,-140.87C-2.81,-143.21 -1.439,-145.38 0,-147.38C0.213,-147.23 0.551,-147.003 1.019,-146.715L1.819,-146.24C3.317,-145.379 5.641,-144.189 8.86,-142.92C7.556,-139.744 6.559,-136.414 5.794,-133.052L5.48,-131.61L-8.17,-131.61L-7.292,-133.984Z" style="fill:rgb(167,56,54);"/>
                </g>
                <g transform="matrix(1,0,0,1,246.872,215.408)">
                    <path d="M-102.531,-33.32L-102.53,-33.32L-102.53,-27.47C-102.53,-27.47 -96.05,-21.55 -86.32,-21.55C-81.004,-21.55 -76.653,-23.321 -73.805,-24.93C-76.653,-23.321 -81.004,-21.55 -86.321,-21.55C-96.05,-21.55 -102.531,-27.47 -102.531,-27.47L-102.531,-33.32Z" style="fill:rgb(25,47,96);"/>
                </g>
                <g transform="matrix(1,0,0,1,246.872,215.408)">
                    <path d="M-73.805,-24.93C-71.442,-26.255 -70.11,-27.47 -70.11,-27.47L-70.11,-33.32C-50.29,-28.62 -17.37,-16.35 -0.58,15.21L-0.58,15.21C-23.3,35.6 -53.38,48.02 -86.321,48.02C-119.26,48.02 -149.34,35.6 -172.07,15.211L-172.07,15.21C-155.28,-16.35 -122.351,-28.62 -102.531,-33.32L-102.531,-27.47C-102.531,-27.47 -96.05,-21.55 -86.321,-21.55C-81.004,-21.55 -76.653,-23.321 -73.805,-24.93Z" style="fill:rgb(25,47,96);"/>
                </g>
                <g transform="matrix(1,0,0,1,115.801,72.6477)">
                    <path d="M0,-6.85C-1.49,-3.22 -2.58,0.61 -3.38,4.46L-17.03,4.46C-15.92,1.27 -14.57,-1.82 -12.95,-4.8C-11.67,-7.14 -10.3,-9.31 -8.86,-11.31C-8.01,-10.71 -5.15,-8.88 0,-6.85" style="fill:rgb(25,47,96);fill-rule:nonzero;"/>
                </g>
                <g transform="matrix(0.984266,-0.176694,-0.176694,-0.984266,114.173,114.568)">
                    <path d="M-0.075,-0.007C-0.068,0.256 -0.075,0.501 -0.079,0.705C-0.07,0.755 -0.073,0.796 -0.075,0.837C-0.073,0.796 -0.07,0.755 -0.069,0.704C-0.067,0.49 -0.068,0.256 -0.075,-0.007" style="fill:rgb(25,47,96);fill-rule:nonzero;"/>
                </g>
                <g transform="matrix(1,0,0,1,166.521,72.4678)">
                    <path d="M0,4.64L-17.729,4.64C-18.06,3.14 -18.26,1.57 -18.31,0C-14.52,0.28 -10.479,0.45 -6.09,0.46L-5.85,0.46C-3.88,0.45 -2,0.41 -0.149,0.35C-0.159,1.78 -0.12,3.21 0,4.64" style="fill:rgb(25,47,96);fill-rule:nonzero;"/>
                </g>
                <g transform="matrix(1,0,0,1,207.591,127.368)">
                    <path d="M0,1.99C-0.19,1.33 -0.34,0.66 -0.47,0C-0.34,0.66 -0.18,1.32 0,1.99" style="fill:rgb(25,47,96);fill-rule:nonzero;"/>
                </g>
                <g transform="matrix(1,0,0,1,222.332,61.3378)">
                    <path d="M0,15.77L-14.09,15.77C-15.05,11.99 -16.15,8.25 -17.601,4.66C-12.101,2.55 -9.061,0.62 -8.17,0C-6.73,2 -5.36,4.17 -4.09,6.51C-2.46,9.49 -1.11,12.58 0,15.77" style="fill:rgb(25,47,96);fill-rule:nonzero;"/>
                </g>
                <g transform="matrix(1,0,0,1,207.591,127.368)">
                    <path d="M0,1.99C-0.19,1.33 -0.34,0.66 -0.47,0C-0.34,0.66 -0.18,1.32 0,1.99" style="fill:white;fill-rule:nonzero;"/>
                </g>
                <g transform="matrix(0.984266,-0.176694,-0.176694,-0.984266,114.173,114.568)">
                    <path d="M-0.075,-0.007C-0.068,0.256 -0.075,0.501 -0.079,0.705C-0.07,0.755 -0.073,0.796 -0.075,0.837C-0.073,0.796 -0.07,0.755 -0.069,0.704C-0.067,0.49 -0.068,0.256 -0.075,-0.007" style="fill:white;fill-rule:nonzero;"/>
                </g>
                <g transform="matrix(1,0,0,1,210.681,139.058)">
                    <path d="M0,-2.82C0,-2.82 -11.3,17.53 -33.92,24.75L-33.92,48.88C-33.92,48.88 -40.41,54.8 -50.13,54.8C-59.859,54.8 -66.34,48.88 -66.34,48.88L-66.34,24.75C-88.97,17.53 -100.26,-2.82 -100.26,-2.82C-100.26,-2.82 -100.26,-2.83 -100.25,-2.83C-99.63,-3.77 -99.09,-4.74 -98.62,-5.72C-98.37,-6.25 -98.149,-6.79 -97.939,-7.33C-97.84,-7.59 -97.74,-7.86 -97.649,-8.13L-97.649,-8.14C-97.55,-8.41 -97.47,-8.68 -97.38,-8.95L-97.38,-8.96C-97.3,-9.22 -97.22,-9.49 -97.149,-9.76L-97.149,-9.77C-97.069,-10.04 -97.01,-10.3 -96.939,-10.57L-96.939,-10.58C-96.88,-10.85 -96.819,-11.11 -96.76,-11.38L-96.76,-11.39C-96.7,-11.65 -96.649,-11.92 -96.6,-12.18L-96.6,-12.2C-96.55,-12.46 -96.51,-12.72 -96.47,-12.98L-96.47,-13C-96.43,-13.26 -96.39,-13.51 -96.359,-13.77L-96.359,-13.79C-96.319,-14.04 -96.29,-14.3 -96.27,-14.55L-96.27,-14.57C-96.24,-14.82 -96.22,-15.07 -96.2,-15.32L-96.2,-15.34C-96.18,-15.58 -96.16,-15.83 -96.14,-16.07L-96.14,-16.09C-96.13,-16.34 -96.12,-16.58 -96.109,-16.81L-96.109,-16.83C-96.1,-17.07 -96.09,-17.31 -96.09,-17.54L-96.09,-17.56C-96.08,-17.79 -96.08,-18.02 -96.08,-18.25C-96.08,-19.53 -96.149,-20.71 -96.24,-21.75C-96.27,-22.09 -96.31,-22.43 -96.34,-22.74C-96.35,-22.78 -96.35,-22.83 -96.359,-22.87C-96.38,-23.02 -96.399,-23.17 -96.41,-23.31C-96.43,-23.46 -96.45,-23.59 -96.47,-23.73C-96.5,-23.99 -96.54,-24.24 -96.58,-24.47C-96.62,-24.73 -96.66,-24.96 -96.7,-25.17L-87.439,-25.17L-87.439,-29.76L-85.05,-25.17L-72.53,-25.17C-78.01,-35.43 -77.85,-51.25 -77.8,-57.62C-75.03,-49.85 -68.21,-33.36 -56.31,-25.17L-52.899,-25.17L-53.41,-33.12C-52.5,-27.24 -50.27,-25.17 -50.27,-25.17L-44.06,-25.17C-44.38,-31.4 -43.71,-42.82 -35.649,-56.97C-35.649,-56.97 -30.68,-50.85 -30.229,-25.17L-16.26,-25.17C-16.26,-25.17 -14.08,-28.15 -14.08,-31.97L-14.08,-25.17L-3.56,-25.17C-3.899,-23.34 -4.479,-19.28 -4,-14.61C-3.93,-13.98 -3.85,-13.33 -3.74,-12.68C-3.68,-12.35 -3.62,-12.03 -3.56,-11.69C-3.43,-11.03 -3.28,-10.36 -3.09,-9.7C-2.819,-8.69 -2.479,-7.7 -2.069,-6.71C-1.93,-6.38 -1.79,-6.05 -1.64,-5.72C-1.17,-4.74 -0.63,-3.77 -0.01,-2.83C0,-2.83 0,-2.82 0,-2.82" style="fill:white;fill-rule:nonzero;"/>
                </g>
                <g transform="matrix(1,0,0,1,194.43,123.282)">
                    <path d="M0,-2.745C-1.337,-1.73 -2.867,-1.078 -4.446,-0.616C-6.031,-0.168 -7.682,0.052 -9.33,0.054C-10.98,0.056 -12.63,-0.165 -14.215,-0.612C-15.795,-1.073 -17.325,-1.727 -18.661,-2.745C-16.986,-2.801 -15.432,-2.724 -13.89,-2.699C-12.352,-2.658 -10.842,-2.634 -9.33,-2.631C-7.819,-2.63 -6.309,-2.655 -4.771,-2.695C-3.229,-2.72 -1.674,-2.798 0,-2.745" style="fill:rgb(25,47,96);fill-rule:nonzero;"/>
                </g>
                <g transform="matrix(1,0,0,1,145.748,123.344)">
                    <path d="M0,-2.746C-1.337,-1.73 -2.867,-1.079 -4.446,-0.616C-6.031,-0.169 -7.682,0.052 -9.331,0.053C-10.98,0.056 -12.631,-0.166 -14.216,-0.613C-15.796,-1.074 -17.325,-1.727 -18.661,-2.746C-16.987,-2.802 -15.432,-2.725 -13.89,-2.7C-12.352,-2.659 -10.842,-2.635 -9.331,-2.632C-7.819,-2.631 -6.31,-2.655 -4.771,-2.696C-3.229,-2.721 -1.674,-2.799 0,-2.746" style="fill:rgb(25,47,96);fill-rule:nonzero;"/>
                </g>
                <g transform="matrix(1,0,0,1,208.242,121.698)">
                    <path d="M0,-44.59C-0.96,-48.37 -2.061,-52.11 -3.511,-55.7C1.989,-57.81 5.029,-59.74 5.92,-60.36C7.359,-58.36 8.729,-56.19 10,-53.85C11.63,-50.87 12.979,-47.78 14.09,-44.59L0,-44.59ZM-30.931,-44.59C-31.17,-46.24 -31.271,-47.9 -31.221,-49.58C-29.86,-49.72 -28.551,-49.87 -27.28,-50.03C-22.17,-50.69 -17.721,-51.56 -13.851,-52.51C-12.73,-49.95 -11.82,-47.3 -11.061,-44.59L-30.931,-44.59ZM-59.45,-44.59C-59.78,-46.09 -59.98,-47.66 -60.03,-49.23C-56.24,-48.95 -52.2,-48.78 -47.811,-48.77L-47.57,-48.77C-45.601,-48.78 -43.721,-48.82 -41.87,-48.88C-41.88,-47.45 -41.841,-46.02 -41.721,-44.59L-59.45,-44.59ZM-84.92,-44.59C-84.261,-47.37 -83.37,-50.1 -82.271,-52.67C-78.9,-51.81 -75.03,-51.03 -70.67,-50.38C-70.69,-49.93 -70.69,-49.47 -70.69,-49.02C-70.681,-47.54 -70.561,-46.07 -70.341,-44.59L-84.92,-44.59ZM-95.82,-44.59L-109.471,-44.59C-108.36,-47.78 -107.011,-50.87 -105.391,-53.85C-104.11,-56.19 -102.74,-58.36 -101.301,-60.36C-100.45,-59.76 -97.591,-57.93 -92.44,-55.9C-93.931,-52.27 -95.021,-48.44 -95.82,-44.59M39.739,10.83C30.229,-11.23 27.55,-24.17 26.93,-31.1C26.31,-38.22 24.939,-45.31 22.6,-52.03C21.34,-55.65 19.81,-59.17 17.96,-62.56C16.51,-65.22 14.949,-67.69 13.31,-69.97C-9.74,-102.5 -47.69,-101.45 -47.69,-101.45C-47.69,-101.45 -85.65,-102.5 -108.69,-69.97C-110.33,-67.69 -111.891,-65.22 -113.341,-62.56C-115.19,-59.17 -116.721,-55.65 -117.99,-52.03C-120.32,-45.31 -121.69,-38.22 -122.311,-31.1C-122.931,-24.17 -125.61,-11.23 -135.12,10.83C-151.4,48.7 -124.57,57.65 -124.57,57.65L-124.57,51.15C-124.57,51.15 -119.681,57.65 -108.29,57.65L-109.931,50.96C-109.53,52.27 -107.21,57.65 -97.811,57.65L-97.811,53.48C-97.811,53.48 -91.101,57.91 -84.54,56.89C-84.54,56.89 -88.25,55.42 -88.25,50.5C-88.25,50.5 -82.051,55.71 -74.63,56.33L-77.16,50.18C-76.33,51.63 -73.13,55.71 -63.9,55.71L-63.9,42.11C-86.53,34.89 -97.82,14.54 -97.82,14.54C-97.82,14.54 -97.82,14.53 -97.811,14.53C-97.19,13.59 -96.65,12.62 -96.181,11.64C-95.931,11.11 -95.71,10.57 -95.5,10.03C-95.4,9.77 -95.301,9.5 -95.21,9.23L-95.21,9.22C-95.11,8.95 -95.03,8.68 -94.94,8.41L-94.94,8.4C-94.86,8.14 -94.78,7.87 -94.71,7.6L-94.71,7.59C-94.63,7.32 -94.57,7.06 -94.5,6.79L-94.5,6.78C-94.44,6.51 -94.38,6.25 -94.32,5.98L-94.32,5.97C-94.261,5.71 -94.21,5.44 -94.16,5.18L-94.16,5.16C-94.11,4.9 -94.07,4.64 -94.03,4.38L-94.03,4.36C-93.99,4.1 -93.95,3.85 -93.92,3.59L-93.92,3.57C-93.88,3.32 -93.851,3.06 -93.83,2.81L-93.83,2.79C-93.801,2.54 -93.78,2.29 -93.761,2.04L-93.761,2.02C-93.74,1.78 -93.721,1.53 -93.7,1.29L-93.7,1.27C-93.69,1.02 -93.681,0.78 -93.67,0.55L-93.67,0.53C-93.66,0.29 -93.65,0.05 -93.65,-0.18L-93.65,-0.2C-93.641,-0.43 -93.641,-0.66 -93.641,-0.89C-93.641,-2.17 -93.71,-3.35 -93.801,-4.39C-93.83,-4.73 -93.87,-5.07 -93.9,-5.38C-93.91,-5.42 -93.91,-5.47 -93.92,-5.51C-93.94,-5.66 -93.96,-5.81 -93.971,-5.95C-93.99,-6.1 -94.011,-6.23 -94.03,-6.37C-94.061,-6.63 -94.101,-6.88 -94.141,-7.11C-94.181,-7.37 -94.23,-7.61 -94.271,-7.81C-94.271,-7.86 -94.28,-7.9 -94.29,-7.94C-94.28,-7.9 -94.271,-7.86 -94.261,-7.81L-85,-7.81L-85,-12.4L-82.61,-7.81L-70.091,-7.81C-75.57,-18.07 -75.41,-33.89 -75.36,-40.26C-72.591,-32.49 -65.771,-16 -53.87,-7.81L-50.46,-7.81L-50.971,-15.76C-50.061,-9.88 -47.83,-7.81 -47.83,-7.81L-41.62,-7.81C-41.94,-14.04 -41.271,-25.46 -33.21,-39.61C-33.21,-39.61 -28.24,-33.49 -27.79,-7.81L-13.82,-7.81C-13.82,-7.81 -11.641,-10.79 -11.641,-14.61L-11.641,-7.81L-1.12,-7.81C-1.46,-5.98 -2.04,-1.92 -1.561,2.75C-1.49,3.38 -1.41,4.03 -1.301,4.68C-1.24,5.01 -1.181,5.33 -1.12,5.67C-0.99,6.33 -0.83,6.99 -0.65,7.66C-0.38,8.67 -0.04,9.66 0.37,10.65C0.51,10.98 0.649,11.31 0.8,11.64C1.27,12.62 1.81,13.59 2.43,14.53C2.439,14.53 2.439,14.54 2.439,14.54C2.439,14.54 -8.86,34.89 -31.48,42.11L-31.48,55.71C-22.25,55.71 -19.061,51.63 -18.23,50.18L-20.75,56.33C-13.341,55.71 -7.13,50.5 -7.13,50.5C-7.13,55.42 -10.841,56.89 -10.841,56.89C-4.28,57.91 2.43,53.48 2.43,53.48L2.43,57.65C11.83,57.65 14.14,52.27 14.54,50.96L12.909,57.65C24.3,57.65 29.18,51.15 29.18,51.15L29.18,57.65C29.18,57.65 56.02,48.7 39.739,10.83" style="fill:rgb(25,47,96);fill-rule:nonzero;"/>
                </g>
                <g transform="matrix(1,0,0,1,113.981,113.758)">
                    <path d="M0,0.13L-0.01,0.13C-0.01,0.08 -0.02,0.04 -0.029,0C-0.02,0.04 -0.01,0.08 0,0.13" style="fill:rgb(25,47,96);fill-rule:nonzero;"/>
                </g>
                <g transform="matrix(1,0,0,1,166.521,72.4678)">
                    <path d="M0,4.64L-17.729,4.64C-18.06,3.14 -18.26,1.57 -18.31,0C-14.52,0.28 -10.479,0.45 -6.09,0.46L-5.85,0.46C-3.88,0.45 -2,0.41 -0.149,0.35C-0.159,1.78 -0.12,3.21 0,4.64" style="fill:rgb(25,47,96);fill-rule:nonzero;"/>
                </g>
                <g transform="matrix(1,0,0,1,222.332,61.3378)">
                    <path d="M0,15.77L-14.09,15.77C-15.05,11.99 -16.15,8.25 -17.601,4.66C-12.101,2.55 -9.061,0.62 -8.17,0C-6.73,2 -5.36,4.17 -4.09,6.51C-2.46,9.49 -1.11,12.58 0,15.77" style="fill:white;fill-rule:nonzero;"/>
                </g>
                <g transform="matrix(1,0,0,1,197.181,69.1878)">
                    <path d="M0,7.92L-19.87,7.92C-20.109,6.27 -20.21,4.61 -20.16,2.93C-18.8,2.79 -17.49,2.64 -16.22,2.48C-11.109,1.82 -6.66,0.95 -2.79,0C-1.67,2.56 -0.76,5.21 0,7.92" style="fill:white;fill-rule:nonzero;"/>
                </g>
                <g transform="matrix(1,0,0,1,166.521,72.4678)">
                    <path d="M0,4.64L-17.729,4.64C-18.06,3.14 -18.26,1.57 -18.31,0C-14.52,0.28 -10.479,0.45 -6.09,0.46L-5.85,0.46C-3.88,0.45 -2,0.41 -0.149,0.35C-0.159,1.78 -0.12,3.21 0,4.64" style="fill:white;fill-rule:nonzero;"/>
                </g>
                <g transform="matrix(1,0,0,1,137.901,69.0278)">
                    <path d="M0,8.08L-14.579,8.08C-13.92,5.3 -13.029,2.57 -11.93,0C-8.56,0.86 -4.689,1.64 -0.329,2.29C-0.35,2.74 -0.35,3.2 -0.35,3.65C-0.34,5.13 -0.22,6.6 0,8.08" style="fill:white;fill-rule:nonzero;"/>
                </g>
                <g transform="matrix(1,0,0,1,115.801,72.6477)">
                    <path d="M0,-6.85C-1.49,-3.22 -2.58,0.61 -3.38,4.46L-17.03,4.46C-15.92,1.27 -14.57,-1.82 -12.95,-4.8C-11.67,-7.14 -10.3,-9.31 -8.86,-11.31C-8.01,-10.71 -5.15,-8.88 0,-6.85" style="fill:white;fill-rule:nonzero;"/>
                </g>
            </g>
        </g>
    </g>
</svg>
