<?xml version="1.0" encoding="UTF-8" standalone="no"?>
<!DOCTYPE svg PUBLIC "-//W3C//DTD SVG 1.1//EN" "http://www.w3.org/Graphics/SVG/1.1/DTD/svg11.dtd">
<svg width="100%" height="100%" viewBox="0 0 1369 841" version="1.1" xmlns="http://www.w3.org/2000/svg" xmlns:xlink="http://www.w3.org/1999/xlink" xml:space="preserve" xmlns:serif="http://www.serif.com/" style="fill-rule:evenodd;clip-rule:evenodd;stroke-linejoin:round;stroke-miterlimit:2;">
    <g transform="matrix(1,0,0,1,-2904.4,-5564.39)">
        <g id="Taioh-Title-Blue" serif:id="Taioh Title Blue" transform="matrix(0.390174,0,0,0.338769,2904.4,5564.39)">
            <rect x="0" y="0" width="3507.87" height="2480.32" style="fill:none;"/>
            <g transform="matrix(1.58871,0,0,1.82979,-838.486,-2467.14)">
                <g>
                    <g>
                        <g>
                            <g>
                                <g>
                                    <g transform="matrix(1.85843,0,0,1.85843,1378.36,1983.06)">
                                        <path d="M0,-6.844L23.742,-59.291L47.475,-6.844L0,-6.844ZM97.714,57.773L77.133,12.287L68.477,-6.844L42.334,-64.618L42.502,-64.618C46.589,-64.618 49.902,-67.931 49.902,-72.017L49.902,-76.349C49.902,-80.436 46.589,-83.749 42.502,-83.749L5.141,-83.749C1.054,-83.749 -2.259,-80.436 -2.259,-76.349L-2.259,-72.017C-2.259,-67.931 1.054,-64.618 5.141,-64.618L-21.003,-6.844L-29.658,12.287L-50.239,57.773L-56.746,57.773C-62.029,57.773 -66.311,62.056 -66.311,67.339C-66.311,72.622 -62.029,76.905 -56.746,76.905L-23.716,76.905C-18.433,76.905 -14.151,72.622 -14.151,67.339C-14.151,62.056 -18.433,57.773 -23.716,57.773L-29.237,57.773L-8.656,12.287L56.13,12.287L76.711,57.773L70.584,57.773C65.301,57.773 61.018,62.056 61.018,67.339C61.018,72.622 65.301,76.905 70.584,76.905L103.622,76.905C108.905,76.905 113.188,72.622 113.188,67.339C113.188,62.056 108.905,57.773 103.622,57.773L97.714,57.773Z" style="fill:rgb(21,65,109);fill-rule:nonzero;"/>
                                    </g>
                                    <g transform="matrix(1.85843,0,0,1.85843,1674.83,2087.68)">
                                        <path d="M0,-122.39L0,0.001L6.945,0.001C12.228,0.001 16.51,4.284 16.51,9.567C16.51,14.85 12.228,19.132 6.945,19.132L-26.085,19.132C-31.368,19.132 -35.65,14.85 -35.65,9.567C-35.65,4.284 -31.368,0.001 -26.085,0.001L-19.14,0.001L-19.14,-122.39L-26.085,-122.39C-31.368,-122.39 -35.65,-126.673 -35.65,-131.956C-35.65,-137.239 -31.368,-141.522 -26.085,-141.522L6.945,-141.522C12.228,-141.522 16.51,-137.239 16.51,-131.956C16.51,-126.673 12.228,-122.39 6.945,-122.39L0,-122.39Z" style="fill:rgb(21,65,109);fill-rule:nonzero;"/>
                                    </g>
                                    <g transform="matrix(1.85843,0,0,1.85843,1303.77,2105.63)">
                                        <path d="M0,-141.615L0,-108.586C0,-103.303 -4.283,-99.02 -9.566,-99.02C-14.849,-99.02 -19.131,-103.303 -19.131,-108.586L-19.131,-132.049L-68.772,-132.049L-68.772,-9.566L-61.828,-9.566C-56.545,-9.566 -52.262,-5.283 -52.262,-0C-52.262,5.283 -56.545,9.566 -61.828,9.566L-94.857,9.566C-100.14,9.566 -104.423,5.283 -104.423,-0C-104.423,-5.283 -100.14,-9.566 -94.857,-9.566L-87.904,-9.566L-87.904,-132.049L-137.544,-132.049L-137.544,-108.59C-137.544,-103.305 -141.829,-99.02 -147.114,-99.02C-152.4,-99.02 -156.684,-103.305 -156.684,-108.59L-156.684,-141.611C-156.684,-146.896 -152.4,-151.181 -147.114,-151.181L-9.566,-151.181C-4.283,-151.181 0,-146.898 0,-141.615" style="fill:rgb(21,65,109);fill-rule:nonzero;"/>
                                    </g>
                                    <g transform="matrix(1.85843,0,0,1.85843,2228.75,2087.77)">
                                        <path d="M0,-122.391L0,-0L6.945,-0C12.228,-0 16.51,4.283 16.51,9.566C16.51,14.849 12.228,19.131 6.945,19.131L-26.085,19.131C-31.368,19.131 -35.65,14.849 -35.65,9.566C-35.65,4.283 -31.368,-0 -26.085,-0L-19.14,-0L-19.14,-51.63L-79.493,-51.63L-79.493,-0L-72.548,-0C-67.265,-0 -62.982,4.283 -62.982,9.566C-62.982,14.849 -67.265,19.131 -72.548,19.131L-105.577,19.131C-110.86,19.131 -115.143,14.849 -115.143,9.566C-115.143,4.283 -110.86,-0 -105.577,-0L-98.633,-0L-98.633,-122.391L-105.577,-122.391C-110.86,-122.391 -115.143,-126.674 -115.143,-131.957C-115.143,-137.24 -110.86,-141.522 -105.577,-141.522L-72.548,-141.522C-67.265,-141.522 -62.982,-137.24 -62.982,-131.957C-62.982,-126.674 -67.265,-122.391 -72.548,-122.391L-79.493,-122.391L-79.493,-70.761L-19.14,-70.761L-19.14,-122.391L-26.085,-122.391C-31.368,-122.391 -35.65,-126.674 -35.65,-131.957C-35.65,-137.24 -31.368,-141.522 -26.085,-141.522L6.945,-141.522C12.228,-141.522 16.51,-137.24 16.51,-131.957C16.51,-126.674 12.228,-122.391 6.945,-122.391L0,-122.391Z" style="fill:rgb(21,65,109);fill-rule:nonzero;"/>
                                    </g>
                                    <g transform="matrix(1.85843,0,0,1.85843,1865.47,1862.95)">
                                        <path d="M0,122.413C-33.802,122.413 -61.202,95.004 -61.202,61.202C-61.202,27.4 -33.802,-0 0,-0C33.802,-0 61.202,27.4 61.202,61.202C61.202,95.004 33.802,122.413 0,122.413M0,-19.12C-44.364,-19.12 -80.323,16.838 -80.323,61.202C-80.323,105.567 -44.364,141.533 0,141.533C44.365,141.533 80.331,105.567 80.331,61.202C80.331,16.838 44.365,-19.12 0,-19.12" style="fill:rgb(21,65,109);fill-rule:nonzero;"/>
                                    </g>
                                </g>
                            </g>
                        </g>
                    </g>
                </g>
            </g>
        </g>
    </g>
</svg>
