<?xml version="1.0" encoding="UTF-8" standalone="no"?>
<!DOCTYPE svg PUBLIC "-//W3C//DTD SVG 1.1//EN" "http://www.w3.org/Graphics/SVG/1.1/DTD/svg11.dtd">
<svg width="100%" height="100%" viewBox="0 0 1751 499" version="1.1" xmlns="http://www.w3.org/2000/svg" xmlns:xlink="http://www.w3.org/1999/xlink" xml:space="preserve" xmlns:serif="http://www.serif.com/" style="fill-rule:evenodd;clip-rule:evenodd;stroke-linejoin:round;stroke-miterlimit:2;">
    <g transform="matrix(1,0,0,1,-17786.2,0)">
        <g id="Page-9" serif:id="Page 9" transform="matrix(5.55556,0,0,1.28723,17786.2,0)">
            <rect x="0" y="0" width="315.174" height="387.037" style="fill:none;"/>
            <g id="Layer-2" serif:id="Layer 2">
            </g>
            <g transform="matrix(1,0,0,4.3159,0,-1805.43)">
                <g transform="matrix(1,0,0,1,37.1108,494.8)">
                    <path d="M0,-57.071C2.146,-57.071 4.791,-57.162 7.939,-57.349C11.084,-57.532 14.471,-57.627 18.099,-57.627C24.835,-57.627 28.351,-57.403 28.647,-56.959C28.795,-56.664 28.869,-56.441 28.869,-56.295C28.869,-55.702 28.554,-55.089 27.926,-54.462C27.297,-53.831 26.649,-53.52 25.983,-53.52C25.833,-53.52 25.611,-53.591 25.316,-53.74C25.167,-53.889 23.318,-53.964 19.766,-53.964C9.622,-53.964 4.403,-53.74 4.108,-53.296C3.959,-52.998 3.887,-50.111 3.887,-44.634C3.887,-38.935 3.7,-35.086 3.331,-33.086C3.108,-31.31 2.999,-29.606 2.999,-27.98C2.999,-27.017 2.924,-24.981 2.776,-21.873C2.7,-21.056 2.59,-16.726 2.443,-8.881C2.368,-3.253 2.109,-0.22 1.665,0.224C1.369,0.448 0.925,0.556 0.333,0.556C-0.26,0.556 -0.705,0.299 -1,-0.22C-1.297,-0.735 -1.443,-1.921 -1.443,-3.771C-1.443,-5.475 -1.332,-7.288 -1.11,-9.213C-0.666,-12.619 -0.26,-19.169 0.111,-28.867C0.259,-32.717 0.333,-37.675 0.333,-43.747L0.333,-53.628L-1,-53.52C-1.593,-53.52 -4.663,-53.147 -10.215,-52.408C-10.512,-52.334 -12.215,-52.147 -15.323,-51.852C-16.952,-51.703 -17.877,-51.629 -18.099,-51.629C-19.507,-51.629 -20.208,-52.147 -20.208,-53.184C-20.208,-53.923 -19.97,-54.407 -19.486,-54.628C-19.007,-54.851 -18.026,-54.963 -16.545,-54.963C-14.474,-54.963 -12.992,-55.071 -12.103,-55.295C-6.774,-56.478 -2.74,-57.071 0,-57.071" style="fill:rgb(25,47,96);fill-rule:nonzero;"/>
                </g>
                <g transform="matrix(1,0,0,1,98.9585,479.073)">
                    <path d="M0,-30.907C0,-30.978 -0.427,-31.924 -1.276,-33.737C-2.128,-35.553 -2.593,-36.457 -2.665,-36.457C-2.962,-36.457 -3.536,-35.421 -4.385,-33.35C-5.237,-31.276 -5.663,-29.87 -5.663,-29.131C-5.663,-28.907 -6.146,-27.613 -7.106,-25.244C-8.068,-23.022 -9.032,-20.283 -9.993,-17.027C-10.956,-13.767 -11.437,-11.622 -11.437,-10.585C-11.437,-9.772 -7.478,-9.365 0.443,-9.365C2.443,-9.365 3.812,-9.403 4.553,-9.477C6.181,-9.623 7.162,-9.755 7.495,-9.864C7.827,-9.975 7.995,-10.253 7.995,-10.697C7.995,-11.216 7.29,-13.029 5.886,-16.139C4.848,-18.433 3.608,-21.395 2.165,-25.021C0.722,-28.647 0,-30.609 0,-30.907M-8.884,-29.796C-8.884,-30.09 -8.55,-31.185 -7.884,-33.072C-7.218,-34.96 -6.884,-36.088 -6.884,-36.457C-6.884,-37.196 -6.662,-38.05 -6.219,-39.012C-5.774,-39.975 -5.405,-40.456 -5.106,-40.456C-4.812,-40.456 -4.405,-40.714 -3.887,-41.232C-3.294,-41.825 -2.628,-42.083 -1.888,-42.011C-1.297,-41.937 -0.832,-41.639 -0.5,-41.124C-0.166,-40.602 0.517,-39.124 1.555,-36.681C3.182,-33.126 3.997,-31.202 3.997,-30.907C3.997,-30.388 4.774,-28.24 6.33,-24.465C7.068,-22.69 7.699,-21.08 8.217,-19.636C8.734,-18.193 9.196,-16.952 9.604,-15.916C10.012,-14.879 10.621,-13.547 11.437,-11.92C11.955,-10.955 12.751,-9.199 13.823,-6.644C14.896,-4.089 15.692,-2.33 16.211,-1.371L18.322,2.627C19.801,5.29 20.689,6.775 20.985,7.07C21.356,7.588 21.541,8.252 21.541,9.069C21.541,9.807 21.393,10.326 21.098,10.621C20.727,10.993 20.319,11.176 19.876,11.176C19.21,11.176 18.544,10.882 17.877,10.289C17.211,9.696 16.767,8.957 16.545,8.069C16.471,7.625 15.879,6.219 14.768,3.847C14.396,3.183 13.823,2.034 13.048,0.407C12.27,-1.222 11.771,-2.26 11.548,-2.703L9.771,-6.255L5.33,-5.923C2.221,-5.773 0.111,-5.702 -1,-5.702C-3.592,-5.702 -5.293,-5.848 -6.106,-6.146C-6.996,-6.366 -8.068,-6.478 -9.327,-6.478C-11.104,-6.478 -12.178,-6.329 -12.547,-6.034C-12.843,-5.811 -13.49,-4.201 -14.49,-1.202C-15.489,1.793 -15.989,3.59 -15.989,4.182C-15.989,4.331 -16.286,5.219 -16.877,6.846C-17.248,7.883 -17.526,8.513 -17.711,8.733C-17.896,8.957 -18.285,9.031 -18.877,8.957C-20.061,8.883 -20.654,8.439 -20.654,7.625C-20.654,7.181 -20.542,6.734 -20.32,6.29C-19.581,4.664 -18.617,1.739 -17.433,-2.48C-16.916,-4.405 -16.083,-7.2 -14.934,-10.863C-13.789,-14.53 -13.142,-16.655 -12.992,-17.247C-12.992,-17.322 -12.308,-19.247 -10.938,-23.022C-9.568,-26.797 -8.884,-29.057 -8.884,-29.796" style="fill:rgb(25,47,96);fill-rule:nonzero;"/>
                </g>
                <g transform="matrix(1,0,0,1,147.26,491.024)">
                    <path d="M0,-55.071C1.626,-55.22 2.7,-55.295 3.219,-55.295L3.663,-55.295C4.699,-55.071 5.218,-54.407 5.218,-53.296C5.218,-52.258 4.774,-51.632 3.887,-51.408C2.999,-51.259 1.887,-51.222 0.556,-51.296C-1.074,-51.446 -1.925,-51.446 -2,-51.296C-2.148,-51.076 -2.314,-47.301 -2.498,-39.971C-2.685,-32.642 -2.775,-26.942 -2.775,-22.872C-2.775,-18.43 -2.593,-14.617 -2.22,-11.436C-2,-9.213 -1.888,-7.437 -1.888,-6.105L-1.888,-5.326C-1.962,-4.733 -1.776,-4.438 -1.332,-4.438C2.219,-4.363 4.293,-4.069 4.886,-3.55C5.106,-3.33 5.736,-2.957 6.773,-2.439C7.661,-2.07 8.105,-1.551 8.105,-0.887C8.105,-0.145 7.4,0.224 5.997,0.224C5.849,0.224 5.662,0.208 5.441,0.17C5.218,0.133 5.069,0.113 4.998,0.113C3.663,-0.033 0.593,-0.108 -4.219,-0.108C-7.773,-0.108 -9.958,-0.145 -10.771,-0.219C-11.586,-0.294 -12.142,-0.514 -12.437,-0.887C-12.881,-1.402 -12.92,-2.032 -12.547,-2.774C-12.252,-3.289 -11.899,-3.605 -11.493,-3.717C-11.086,-3.828 -10.255,-3.883 -8.994,-3.883C-7.218,-3.883 -6.219,-3.994 -5.995,-4.218C-5.7,-4.513 -5.551,-16.43 -5.551,-39.971C-5.551,-46.335 -5.592,-49.67 -5.663,-49.965C-5.737,-50.408 -5.887,-50.666 -6.106,-50.74C-6.33,-50.815 -6.812,-50.778 -7.55,-50.632C-9.181,-50.408 -10.659,-50.297 -11.993,-50.297C-13.103,-50.297 -13.769,-50.408 -13.99,-50.632C-14.287,-50.927 -14.38,-51.425 -14.269,-52.13C-14.158,-52.831 -13.918,-53.258 -13.547,-53.407C-12.067,-53.777 -7.55,-54.332 0,-55.071" style="fill:rgb(25,47,96);fill-rule:nonzero;"/>
                </g>
                <g transform="matrix(1,0,0,1,175.02,471.375)">
                    <path d="M0,-3.111C3.401,-3.406 5.588,-3.555 6.55,-3.555C8.475,-3.555 9.62,-3.369 9.992,-2.999C10.216,-2.779 10.325,-2.406 10.325,-1.888C10.325,-0.779 10.067,-0.038 9.549,0.332C9.475,0.407 9.03,0.444 8.217,0.444C6.661,0.444 5.367,0.407 4.33,0.332C3.887,0.332 3.202,0.315 2.276,0.278C1.349,0.24 0.701,0.22 0.332,0.22C-0.112,0.22 -0.685,0.24 -1.39,0.278C-2.095,0.315 -2.519,0.332 -2.667,0.332C-3.186,0.407 -3.887,0.444 -4.775,0.444C-6.625,0.444 -7.551,-0.112 -7.551,-1.224C-7.551,-2.481 -6.405,-3.111 -4.107,-3.111L0,-3.111Z" style="fill:rgb(25,47,96);fill-rule:nonzero;"/>
                </g>
                <g transform="matrix(1,0,0,1,228.428,486.029)">
                    <path d="M0,-45.637C-1.108,-46.301 -1.942,-46.691 -2.498,-46.803C-3.054,-46.914 -4.257,-46.969 -6.106,-46.969C-8.919,-46.969 -10.881,-46.783 -11.993,-46.413C-13.545,-45.894 -14.585,-45.562 -15.101,-45.413C-16.876,-44.895 -18.377,-43.953 -19.597,-42.584C-20.82,-41.211 -22.28,-38.975 -23.985,-35.864C-26.577,-31.053 -27.868,-25.983 -27.868,-20.653C-27.868,-19.097 -27.686,-17.505 -27.316,-15.878C-26.205,-11.659 -24.06,-7.992 -20.874,-4.885C-18.58,-2.588 -16.378,-0.961 -14.267,0.001C-12.159,0.964 -9.698,1.445 -6.883,1.445L-6.327,1.445C-0.187,1.296 4.442,-0.257 7.553,-3.218C9.475,-4.997 11.361,-8.918 13.216,-14.99C13.88,-16.99 14.215,-18.504 14.215,-19.541C14.215,-20.578 14.141,-21.54 13.991,-22.428C13.324,-27.386 12.327,-31.273 10.992,-34.089C10.179,-35.79 8.919,-37.698 7.218,-39.805C5.513,-41.916 4.069,-43.305 2.887,-43.97C2.442,-44.194 1.48,-44.749 0,-45.637M-20.099,-47.301C-18.987,-48.189 -16.95,-49.002 -13.988,-49.744C-11.03,-50.483 -8.218,-50.856 -5.551,-50.856C-4.145,-50.856 -2.962,-50.743 -2,-50.52C0.074,-50.151 2.442,-49.039 5.109,-47.189C6.292,-46.376 7.679,-45.153 9.271,-43.526C10.863,-41.896 11.66,-40.863 11.66,-40.419C11.66,-40.12 11.918,-39.714 12.436,-39.195C13.029,-38.677 13.714,-37.657 14.493,-36.142C15.269,-34.624 15.658,-33.57 15.658,-32.977C15.658,-32.384 15.805,-31.459 16.103,-30.202C16.397,-28.941 16.655,-28.165 16.879,-27.87C17.396,-27.203 17.654,-24.241 17.654,-18.986C17.654,-18.321 17.027,-16.024 15.767,-12.103C14.51,-8.179 13.398,-5.624 12.436,-4.441C11.029,-2.737 10.142,-1.517 9.772,-0.775C8.956,0.557 7.218,1.777 4.554,2.888C1.887,4 -0.37,4.552 -2.22,4.552C-3.183,4.552 -3.701,4.664 -3.775,4.887C-3.995,5.108 -4.7,5.219 -5.883,5.219C-8.181,5.219 -10.105,4.962 -11.657,4.444C-14.324,3.631 -16.398,2.739 -17.875,1.777C-19.359,0.818 -21.098,-0.666 -23.094,-2.662C-25.835,-5.4 -27.777,-8.121 -28.926,-10.825C-30.074,-13.526 -30.756,-16.878 -30.979,-20.873C-31.054,-21.69 -31.091,-22.686 -31.091,-23.872C-31.091,-25.278 -30.83,-26.871 -30.312,-28.646C-28.834,-33.604 -27.425,-37.196 -26.093,-39.419C-25.724,-40.009 -25.371,-40.676 -25.039,-41.415C-24.707,-42.157 -24.466,-42.676 -24.317,-42.97C-24.168,-43.265 -23.928,-43.637 -23.596,-44.082C-23.264,-44.526 -22.819,-44.987 -22.264,-45.471C-21.708,-45.949 -20.986,-46.562 -20.099,-47.301" style="fill:rgb(25,47,96);fill-rule:nonzero;"/>
                </g>
                <g transform="matrix(1,0,0,1,294.052,489.327)">
                    <path d="M0,-51.93C0.295,-52.523 0.701,-52.781 1.224,-52.709C1.738,-52.635 2.145,-52.265 2.443,-51.598C3.257,-49.524 3.813,-33.57 4.107,-3.74L4.219,0.591L2.999,0.702C2.257,0.851 1.738,0.777 1.443,0.479C1.224,0.258 1.037,-3.445 0.888,-10.626C0.738,-17.803 0.593,-21.47 0.444,-21.618C0.295,-21.764 -1.999,-21.913 -6.438,-22.062C-7.923,-22.134 -11.104,-22.357 -15.991,-22.727C-20.874,-23.096 -24.466,-23.283 -26.76,-23.283L-28.979,-23.283L-32.423,-23.062L-32.423,-21.618C-32.423,-20.731 -32.497,-19.84 -32.646,-18.952C-32.721,-18.731 -32.866,-15.621 -33.09,-9.626C-33.311,-3.628 -33.497,-0.521 -33.646,-0.297C-33.94,0.221 -34.405,0.442 -35.032,0.367C-35.662,0.296 -36.089,-0.002 -36.31,-0.521L-36.31,-1.076C-36.384,-1.446 -36.421,-1.815 -36.421,-2.185C-36.421,-4.777 -36.272,-8.793 -35.978,-14.235C-35.683,-19.674 -35.459,-22.544 -35.31,-22.839C-35.164,-22.988 -35.09,-27.427 -35.09,-36.162C-35.09,-45.048 -34.978,-49.598 -34.754,-49.822C-34.459,-50.192 -34.053,-50.337 -33.534,-50.266C-33.016,-50.192 -32.684,-49.968 -32.534,-49.598C-32.46,-49.524 -32.331,-45.898 -32.145,-38.718C-31.962,-31.537 -31.867,-27.688 -31.867,-27.169C-31.796,-26.874 -31.017,-26.725 -29.535,-26.725L-27.428,-26.725C-24.171,-26.725 -20.766,-26.539 -17.211,-26.17C-14.324,-25.875 -10.399,-25.725 -5.442,-25.725L0.556,-25.837L0.444,-34.275C0.295,-40.419 0.111,-44.675 -0.112,-47.047C-0.261,-48.674 -0.332,-49.636 -0.332,-49.934C-0.332,-50.968 -0.221,-51.635 0,-51.93" style="fill:rgb(25,47,96);fill-rule:nonzero;"/>
                </g>
            </g>
        </g>
    </g>
</svg>
