<?xml version="1.0" encoding="UTF-8" standalone="no"?>
<!DOCTYPE svg PUBLIC "-//W3C//DTD SVG 1.1//EN" "http://www.w3.org/Graphics/SVG/1.1/DTD/svg11.dtd">
<svg width="100%" height="100%" viewBox="0 0 2229 213" version="1.1" xmlns="http://www.w3.org/2000/svg" xmlns:xlink="http://www.w3.org/1999/xlink" xml:space="preserve" xmlns:serif="http://www.serif.com/" style="fill-rule:evenodd;clip-rule:evenodd;stroke-linejoin:round;stroke-miterlimit:2;">
    <g transform="matrix(1,0,0,1,-19660.3,0)">
        <g id="Page-10" serif:id="Page 10" transform="matrix(7.07218,0,0,0.548282,19660.3,0)">
            <rect x="0" y="0" width="315.174" height="387.037" style="fill:none;"/>
            <g id="Layer-2" serif:id="Layer 2">
            </g>
            <g transform="matrix(0.785551,0,0,2.34775,0,0)">
                <g transform="matrix(1,0,0,4.3159,9.64355,123.145)">
                    <path d="M0,-18.183C0.538,-18.232 0.893,-18.257 1.064,-18.257L1.209,-18.257C1.552,-18.183 1.724,-17.963 1.724,-17.598C1.724,-17.255 1.577,-17.048 1.284,-16.974C0.99,-16.925 0.624,-16.912 0.184,-16.938C-0.354,-16.987 -0.636,-16.987 -0.66,-16.938C-0.708,-16.864 -0.764,-15.616 -0.825,-13.197C-0.886,-10.777 -0.916,-8.895 -0.916,-7.552C-0.916,-6.084 -0.855,-4.827 -0.733,-3.775C-0.66,-3.041 -0.623,-2.455 -0.623,-2.016L-0.623,-1.757C-0.647,-1.563 -0.586,-1.466 -0.44,-1.466C0.734,-1.44 1.418,-1.343 1.614,-1.171C1.687,-1.097 1.894,-0.975 2.236,-0.806C2.53,-0.683 2.676,-0.512 2.676,-0.292C2.676,-0.046 2.443,0.074 1.98,0.074C1.931,0.074 1.871,0.069 1.796,0.056C1.724,0.044 1.674,0.038 1.651,0.038C1.209,-0.01 0.195,-0.037 -1.393,-0.037C-2.566,-0.037 -3.288,-0.046 -3.556,-0.072C-3.825,-0.095 -4.009,-0.169 -4.106,-0.292C-4.253,-0.463 -4.265,-0.67 -4.143,-0.916C-4.044,-1.084 -3.93,-1.19 -3.794,-1.228C-3.66,-1.264 -3.385,-1.282 -2.969,-1.282C-2.382,-1.282 -2.052,-1.318 -1.979,-1.392C-1.882,-1.489 -1.833,-5.424 -1.833,-13.197C-1.833,-15.298 -1.845,-16.398 -1.87,-16.498C-1.894,-16.644 -1.942,-16.728 -2.017,-16.753C-2.089,-16.777 -2.25,-16.767 -2.492,-16.718C-3.031,-16.644 -3.519,-16.608 -3.959,-16.608C-4.326,-16.608 -4.546,-16.644 -4.619,-16.718C-4.717,-16.815 -4.748,-16.979 -4.711,-17.211C-4.674,-17.445 -4.596,-17.585 -4.473,-17.633C-3.984,-17.756 -2.492,-17.938 0,-18.183" style="fill:rgb(25,47,96);fill-rule:nonzero;stroke:rgb(25,47,96);stroke-width:0.65px;"/>
                </g>
                <g transform="matrix(1,0,0,4.3159,16.3896,124.998)">
                    <path d="M0,-18.173C0.097,-18.27 0.257,-18.296 0.477,-18.247L0.917,-18.209L0.88,-12.196L0.88,-9.337C0.88,-6.941 0.929,-5.207 1.027,-4.13C1.124,-2.959 1.21,-2.248 1.283,-2.005C1.357,-1.76 1.491,-1.613 1.687,-1.566C1.784,-1.54 2.994,-1.504 5.315,-1.455C9.3,-1.381 11.402,-1.258 11.622,-1.087C11.744,-0.964 11.805,-0.77 11.805,-0.501C11.805,-0.084 11.598,0.123 11.182,0.123C10.962,0.123 10.791,0.11 10.669,0.084C8.86,-0.207 6.257,-0.356 2.859,-0.356C1.295,-0.356 0.452,-0.414 0.33,-0.537C0.231,-0.635 0.128,-1.803 0.018,-4.038C-0.092,-6.276 -0.147,-8.127 -0.147,-9.593L-0.147,-10.032C-0.098,-11.792 -0.073,-13.528 -0.073,-15.239C-0.073,-17.148 -0.05,-18.124 0,-18.173" style="fill:rgb(25,47,96);fill-rule:nonzero;stroke:rgb(25,47,96);stroke-width:0.65px;"/>
                </g>
                <g transform="matrix(1,0,0,4.3159,32.2646,124.998)">
                    <path d="M0,-18.173C0.097,-18.27 0.257,-18.296 0.477,-18.247L0.917,-18.209L0.88,-12.196L0.88,-9.337C0.88,-6.941 0.928,-5.207 1.027,-4.13C1.124,-2.959 1.21,-2.248 1.283,-2.005C1.357,-1.76 1.491,-1.613 1.687,-1.566C1.784,-1.54 2.994,-1.504 5.315,-1.455C9.3,-1.381 11.402,-1.258 11.622,-1.087C11.744,-0.964 11.805,-0.77 11.805,-0.501C11.805,-0.084 11.598,0.123 11.182,0.123C10.962,0.123 10.791,0.11 10.669,0.084C8.86,-0.207 6.257,-0.356 2.859,-0.356C1.295,-0.356 0.452,-0.414 0.33,-0.537C0.231,-0.635 0.128,-1.803 0.018,-4.038C-0.092,-6.276 -0.147,-8.127 -0.147,-9.593L-0.147,-10.032C-0.098,-11.792 -0.073,-13.528 -0.073,-15.239C-0.073,-17.148 -0.05,-18.124 0,-18.173" style="fill:rgb(25,47,96);fill-rule:nonzero;stroke:rgb(25,47,96);stroke-width:0.65px;"/>
                </g>
                <g transform="matrix(1,0,0,4.3159,60.8613,124.151)">
                    <path d="M0,-18.087C0.343,-18.258 0.587,-18.245 0.734,-18.051C0.831,-17.902 0.977,-16.24 1.174,-13.064C1.247,-12.038 1.284,-11.266 1.284,-10.755C1.284,-10.264 1.247,-9.801 1.174,-9.36C1.075,-8.555 0.917,-7.619 0.697,-6.556C0.477,-5.494 0.33,-4.9 0.257,-4.778C0.207,-4.704 0.049,-4.399 -0.22,-3.862C-0.611,-3.054 -1.35,-2.272 -2.438,-1.515C-3.525,-0.758 -4.546,-0.317 -5.5,-0.195C-5.768,-0.17 -6.007,-0.103 -6.214,0.007C-6.421,0.117 -6.722,0.171 -7.112,0.171L-7.186,0.171C-8.432,0.171 -9.678,-0.635 -10.925,-2.249C-11.781,-3.322 -12.319,-4.545 -12.539,-5.913C-12.685,-6.844 -12.759,-8.542 -12.759,-11.01C-12.759,-14.847 -12.636,-16.974 -12.392,-17.391C-12.294,-17.56 -12.209,-17.647 -12.135,-17.647C-11.94,-17.647 -11.842,-15.91 -11.842,-12.44C-11.842,-10.215 -11.793,-8.42 -11.695,-7.052C-11.646,-6.512 -11.519,-5.878 -11.31,-5.144C-11.103,-4.412 -10.914,-3.921 -10.742,-3.678C-10.008,-2.578 -9.313,-1.832 -8.651,-1.441L-7.772,-0.891L-6.562,-1.11C-5.267,-1.357 -4.167,-1.771 -3.263,-2.358C-2.261,-3.041 -1.564,-3.758 -1.172,-4.502C-0.783,-5.248 -0.428,-6.55 -0.11,-8.407C0.085,-9.483 0.184,-10.681 0.184,-12C0.184,-13.517 0.049,-15.008 -0.22,-16.473C-0.293,-16.913 -0.33,-17.242 -0.33,-17.463C-0.33,-17.805 -0.22,-18.013 0,-18.087" style="fill:rgb(25,47,96);fill-rule:nonzero;stroke:rgb(25,47,96);stroke-width:0.65px;"/>
                </g>
                <g transform="matrix(1,0,0,4.3159,73.29,125.68)">
                    <path d="M0,-18.001C0.367,-18.075 0.733,-18.111 1.1,-18.111C1.614,-18.111 2.164,-18.024 2.75,-17.855C3.972,-17.464 4.889,-16.889 5.5,-16.132C5.792,-15.715 5.939,-15.459 5.939,-15.362C5.939,-15.262 5.83,-15.19 5.61,-15.142L5.536,-15.142C5.315,-15.142 4.986,-15.349 4.546,-15.764C3.471,-16.694 2.31,-17.157 1.064,-17.157C-0.6,-17.157 -1.955,-16.413 -3.006,-14.922C-3.25,-14.554 -3.397,-14.293 -3.446,-14.132C-3.496,-13.974 -3.519,-13.674 -3.519,-13.234C-3.519,-12.111 -3.214,-11.28 -2.603,-10.74C-2.383,-10.546 -1.968,-10.26 -1.356,-9.882C-0.745,-9.5 -0.379,-9.312 -0.257,-9.312C-0.134,-9.312 0.073,-9.227 0.367,-9.056C0.611,-8.909 0.99,-8.762 1.504,-8.615C2.187,-8.419 2.762,-8.15 3.226,-7.81C3.69,-7.467 4.216,-6.928 4.803,-6.196C5.146,-5.779 5.315,-5.278 5.315,-4.692C5.315,-4.522 5.267,-4.143 5.17,-3.557C5.023,-2.749 4.852,-2.234 4.656,-2.015C4.46,-1.795 3.789,-1.368 2.639,-0.733C1.663,-0.171 0.257,0.11 -1.577,0.11C-2.555,0.11 -3.386,-0.022 -4.07,-0.294C-4.853,-0.611 -5.792,-1.403 -6.892,-2.675C-7.112,-2.92 -7.222,-3.188 -7.222,-3.482C-7.222,-3.677 -7.149,-3.836 -7.002,-3.959C-6.905,-4.007 -6.832,-4.032 -6.782,-4.032C-6.588,-4.032 -6.256,-3.703 -5.792,-3.043C-4.864,-1.698 -3.519,-1.025 -1.759,-1.025C-1.418,-1.025 -0.745,-1.13 0.257,-1.337C1.258,-1.544 1.857,-1.698 2.054,-1.795C2.297,-1.967 2.639,-2.15 3.079,-2.345C3.642,-2.616 3.96,-2.858 4.033,-3.079C4.106,-3.299 4.143,-3.667 4.143,-4.179C4.143,-4.667 4.106,-4.948 4.033,-5.022C3.935,-5.071 3.886,-5.168 3.886,-5.316C3.886,-5.585 3.605,-5.969 3.043,-6.47C2.481,-6.971 1.955,-7.309 1.467,-7.478C1.197,-7.552 0.776,-7.71 0.202,-7.956C-0.373,-8.198 -0.758,-8.347 -0.953,-8.396C-1.198,-8.493 -1.497,-8.664 -1.852,-8.909C-2.206,-9.152 -2.456,-9.312 -2.603,-9.386C-3.166,-9.68 -3.648,-10.211 -4.051,-10.981C-4.455,-11.751 -4.656,-12.525 -4.656,-13.309C-4.656,-14.091 -4.387,-14.822 -3.85,-15.508C-3.239,-16.241 -2.652,-16.791 -2.089,-17.157C-1.528,-17.525 -0.831,-17.804 0,-18.001" style="fill:rgb(25,47,96);fill-rule:nonzero;stroke:rgb(25,47,96);stroke-width:0.65px;"/>
                </g>
                <g transform="matrix(1,0,0,4.3159,90.0449,128.535)">
                    <path d="M0,-18.847C0.708,-18.847 1.582,-18.874 2.621,-18.936C3.66,-18.997 4.777,-19.029 5.975,-19.029C8.199,-19.029 9.36,-18.956 9.458,-18.808C9.507,-18.711 9.531,-18.637 9.531,-18.588C9.531,-18.394 9.428,-18.192 9.221,-17.985C9.012,-17.775 8.799,-17.673 8.579,-17.673C8.529,-17.673 8.456,-17.696 8.359,-17.747C8.309,-17.795 7.699,-17.819 6.525,-17.819C3.176,-17.819 1.454,-17.747 1.355,-17.599C1.307,-17.501 1.282,-16.547 1.282,-14.74C1.282,-12.858 1.221,-11.586 1.1,-10.926C1.025,-10.341 0.99,-9.779 0.99,-9.242C0.99,-8.921 0.964,-8.251 0.916,-7.223C0.891,-6.954 0.854,-5.526 0.806,-2.935C0.781,-1.076 0.695,-0.076 0.55,0.073C0.451,0.144 0.304,0.182 0.11,0.182C-0.087,0.182 -0.233,0.095 -0.33,-0.076C-0.428,-0.244 -0.477,-0.636 -0.477,-1.246C-0.477,-1.81 -0.44,-2.408 -0.367,-3.044C-0.22,-4.167 -0.087,-6.33 0.036,-9.533C0.084,-10.804 0.11,-12.443 0.11,-14.446L0.11,-17.708L-0.33,-17.673C-0.527,-17.673 -1.541,-17.55 -3.373,-17.305C-3.472,-17.282 -4.033,-17.22 -5.06,-17.123C-5.598,-17.075 -5.904,-17.049 -5.977,-17.049C-6.441,-17.049 -6.673,-17.22 -6.673,-17.563C-6.673,-17.806 -6.594,-17.967 -6.435,-18.038C-6.276,-18.113 -5.952,-18.149 -5.464,-18.149C-4.78,-18.149 -4.29,-18.187 -3.997,-18.258C-2.236,-18.65 -0.905,-18.847 0,-18.847" style="fill:rgb(25,47,96);fill-rule:nonzero;stroke:rgb(25,47,96);stroke-width:0.65px;"/>
                </g>
                <g transform="matrix(1,0,0,4.3159,131.147,115.077)">
                    <path d="M0,-13.637C-1.174,-14.199 -2.763,-14.519 -4.767,-14.59C-5.647,-14.639 -6.111,-14.664 -6.16,-14.664C-6.526,-14.664 -6.735,-14.59 -6.784,-14.445C-6.832,-14.151 -6.856,-13.283 -6.856,-11.841C-6.856,-7.612 -6.796,-5.376 -6.673,-5.133C-6.575,-4.863 -6.502,-3.872 -6.454,-2.161C-6.405,-0.45 -6.355,0.49 -6.307,0.662C-6.258,0.882 -5.33,1.041 -3.521,1.137C-3.252,1.163 -2.885,1.174 -2.42,1.174C-1.614,1.174 -0.587,1.027 0.66,0.733C1.588,0.49 2.424,-0.067 3.171,-0.934C3.917,-1.801 4.375,-2.76 4.546,-3.811C4.79,-5.302 4.913,-6.207 4.913,-6.525C4.913,-6.647 4.887,-6.903 4.838,-7.294C4.766,-7.831 4.667,-8.31 4.546,-8.724C4.447,-9.018 4.24,-9.427 3.923,-9.954C3.604,-10.478 3.312,-10.9 3.042,-11.217C2.773,-11.534 2.615,-11.744 2.566,-11.841C2.517,-11.964 2.168,-12.25 1.521,-12.703C0.873,-13.156 0.366,-13.465 0,-13.637M-7.296,-1.246C-7.296,-2.42 -7.375,-3.824 -7.534,-5.463C-7.694,-7.1 -7.773,-8.639 -7.773,-10.081C-7.773,-12.356 -7.797,-13.588 -7.846,-13.784C-7.846,-13.808 -7.853,-13.846 -7.864,-13.895C-7.877,-13.944 -7.89,-13.987 -7.901,-14.023C-7.914,-14.059 -7.925,-14.097 -7.938,-14.133C-7.951,-14.168 -7.956,-14.199 -7.956,-14.225C-7.956,-14.322 -8.152,-14.37 -8.543,-14.37C-8.934,-14.37 -9.166,-14.445 -9.24,-14.59C-9.264,-14.639 -9.276,-14.7 -9.276,-14.775C-9.276,-15.043 -8.971,-15.25 -8.36,-15.399C-7.871,-15.495 -7.589,-15.593 -7.516,-15.69C-7.443,-15.764 -7.089,-15.8 -6.454,-15.8C-5.842,-15.8 -5.317,-15.787 -4.877,-15.764C-3.19,-15.716 -1.907,-15.557 -1.027,-15.288C-0.074,-14.994 1.111,-14.383 2.529,-13.455C3.066,-13.113 3.677,-12.457 4.363,-11.493C5.047,-10.527 5.499,-9.691 5.718,-8.982C5.865,-8.542 5.939,-7.721 5.939,-6.525C5.939,-4.765 5.7,-3.34 5.223,-2.253C4.748,-1.166 3.959,-0.207 2.859,0.624C2.003,1.26 1.104,1.675 0.165,1.872C-0.776,2.066 -2.434,2.163 -4.803,2.163L-8.176,2.163L-8.286,1.798C-8.336,1.651 -8.36,1.554 -8.36,1.504C-8.36,1.186 -8.14,1.005 -7.699,0.953L-7.296,0.918L-7.296,-1.246Z" style="fill:rgb(25,47,96);fill-rule:nonzero;stroke:rgb(25,47,96);stroke-width:0.65px;"/>
                </g>
                <g transform="matrix(1,0,0,4.3159,142.841,123.085)">
                    <path d="M0,-18.095C0.244,-18.121 0.72,-18.134 1.43,-18.134C2.089,-18.134 3.11,-18.114 4.491,-18.077C5.872,-18.041 6.733,-18.024 7.076,-18.024C7.882,-17.998 8.414,-17.962 8.671,-17.913C8.928,-17.863 9.056,-17.753 9.056,-17.584C9.056,-17.485 9.019,-17.364 8.946,-17.216L8.762,-16.85L6.123,-16.96C4.069,-17.034 2.626,-17.07 1.796,-17.07C1.111,-17.07 0.671,-17.044 0.477,-16.995C0.354,-16.973 0.293,-16.727 0.293,-16.264C0.293,-15.676 0.306,-15.126 0.33,-14.613C0.33,-14.295 0.341,-13.881 0.367,-13.366C0.39,-12.853 0.409,-12.408 0.422,-12.03C0.434,-11.649 0.44,-11.374 0.44,-11.203C0.44,-10.447 0.477,-10.03 0.55,-9.958C0.599,-9.907 1.417,-9.884 3.006,-9.884C4.154,-9.884 4.845,-9.871 5.078,-9.848C5.309,-9.823 5.474,-9.748 5.573,-9.628C5.67,-9.48 5.72,-9.357 5.72,-9.26C5.72,-8.917 5.511,-8.71 5.096,-8.638C4.656,-8.516 4.363,-8.516 4.216,-8.638C4.044,-8.758 3.213,-8.82 1.722,-8.82C1.038,-8.82 0.647,-8.797 0.55,-8.748C0.306,-8.576 0.183,-7.342 0.183,-5.045L0.183,-3.871C0.207,-2.257 0.293,-1.404 0.44,-1.304C0.537,-1.255 1.833,-1.232 4.326,-1.232L6.526,-1.232C7.552,-1.232 8.15,-1.145 8.322,-0.974C8.518,-0.78 8.591,-0.56 8.542,-0.314C8.518,-0.143 8.481,-0.04 8.432,-0.002C8.383,0.034 8.273,0.039 8.102,0.016C8.053,0.016 7.791,0.009 7.314,-0.002C6.837,-0.015 6.19,-0.033 5.371,-0.058C4.552,-0.081 3.763,-0.094 3.006,-0.094C-0.099,-0.119 -1.675,-0.181 -1.724,-0.279C-1.821,-0.424 -1.821,-0.577 -1.724,-0.736C-1.626,-0.895 -1.467,-1.012 -1.247,-1.083C-0.954,-1.206 -0.807,-1.291 -0.807,-1.342L-0.807,-1.854C-0.783,-2.197 -0.765,-2.693 -0.752,-3.339C-0.739,-3.987 -0.734,-4.616 -0.734,-5.227C-0.66,-8.282 -0.624,-11.093 -0.624,-13.66C-0.624,-15.321 -0.648,-16.275 -0.697,-16.52C-0.746,-16.763 -0.844,-16.886 -0.99,-16.886C-1.137,-16.886 -1.253,-16.96 -1.339,-17.106C-1.424,-17.254 -1.442,-17.4 -1.394,-17.545C-1.295,-17.814 -0.831,-17.998 0,-18.095" style="fill:rgb(25,47,96);fill-rule:nonzero;stroke:rgb(25,47,96);stroke-width:0.65px;"/>
                </g>
                <g transform="matrix(1,0,0,4.3159,163.189,125.68)">
                    <path d="M0,-18.001C0.367,-18.075 0.733,-18.111 1.1,-18.111C1.614,-18.111 2.164,-18.024 2.75,-17.855C3.972,-17.464 4.889,-16.889 5.5,-16.132C5.792,-15.715 5.939,-15.459 5.939,-15.362C5.939,-15.262 5.83,-15.19 5.61,-15.142L5.536,-15.142C5.315,-15.142 4.986,-15.349 4.546,-15.764C3.471,-16.694 2.31,-17.157 1.064,-17.157C-0.6,-17.157 -1.955,-16.413 -3.006,-14.922C-3.25,-14.554 -3.397,-14.293 -3.446,-14.132C-3.496,-13.974 -3.519,-13.674 -3.519,-13.234C-3.519,-12.111 -3.214,-11.28 -2.604,-10.74C-2.383,-10.546 -1.968,-10.26 -1.356,-9.882C-0.745,-9.5 -0.379,-9.312 -0.257,-9.312C-0.134,-9.312 0.073,-9.227 0.367,-9.056C0.611,-8.909 0.99,-8.762 1.504,-8.615C2.187,-8.419 2.762,-8.15 3.226,-7.81C3.69,-7.467 4.216,-6.928 4.803,-6.196C5.146,-5.779 5.315,-5.278 5.315,-4.692C5.315,-4.522 5.267,-4.143 5.17,-3.557C5.023,-2.749 4.852,-2.234 4.656,-2.015C4.46,-1.795 3.789,-1.368 2.639,-0.733C1.663,-0.171 0.257,0.11 -1.577,0.11C-2.555,0.11 -3.386,-0.022 -4.07,-0.294C-4.853,-0.611 -5.792,-1.403 -6.892,-2.675C-7.112,-2.92 -7.222,-3.188 -7.222,-3.482C-7.222,-3.677 -7.149,-3.836 -7.002,-3.959C-6.905,-4.007 -6.832,-4.032 -6.782,-4.032C-6.588,-4.032 -6.256,-3.703 -5.792,-3.043C-4.864,-1.698 -3.519,-1.025 -1.759,-1.025C-1.418,-1.025 -0.745,-1.13 0.257,-1.337C1.258,-1.544 1.857,-1.698 2.054,-1.795C2.297,-1.967 2.639,-2.15 3.079,-2.345C3.642,-2.616 3.96,-2.858 4.033,-3.079C4.106,-3.299 4.143,-3.667 4.143,-4.179C4.143,-4.667 4.106,-4.948 4.033,-5.022C3.935,-5.071 3.886,-5.168 3.886,-5.316C3.886,-5.585 3.605,-5.969 3.043,-6.47C2.481,-6.971 1.955,-7.309 1.467,-7.478C1.197,-7.552 0.776,-7.71 0.202,-7.956C-0.373,-8.198 -0.758,-8.347 -0.953,-8.396C-1.198,-8.493 -1.497,-8.664 -1.852,-8.909C-2.206,-9.152 -2.456,-9.312 -2.604,-9.386C-3.166,-9.68 -3.648,-10.211 -4.051,-10.981C-4.455,-11.751 -4.656,-12.525 -4.656,-13.309C-4.656,-14.091 -4.387,-14.822 -3.85,-15.508C-3.239,-16.241 -2.652,-16.791 -2.089,-17.157C-1.528,-17.525 -0.831,-17.804 0,-18.001" style="fill:rgb(25,47,96);fill-rule:nonzero;stroke:rgb(25,47,96);stroke-width:0.65px;"/>
                </g>
                <g transform="matrix(1,0,0,4.3159,177.962,123.145)">
                    <path d="M0,-18.183C0.54,-18.232 0.895,-18.257 1.064,-18.257L1.212,-18.257C1.555,-18.183 1.724,-17.963 1.724,-17.598C1.724,-17.255 1.581,-17.048 1.284,-16.974C0.992,-16.925 0.624,-16.912 0.184,-16.938C-0.353,-16.987 -0.634,-16.987 -0.659,-16.938C-0.707,-16.864 -0.762,-15.616 -0.824,-13.197C-0.885,-10.777 -0.915,-8.895 -0.915,-7.552C-0.915,-6.084 -0.854,-4.827 -0.731,-3.775C-0.659,-3.041 -0.622,-2.455 -0.622,-2.016L-0.622,-1.757C-0.646,-1.563 -0.584,-1.466 -0.44,-1.466C0.736,-1.44 1.417,-1.343 1.616,-1.171C1.688,-1.097 1.897,-0.975 2.24,-0.806C2.532,-0.683 2.68,-0.512 2.68,-0.292C2.68,-0.046 2.445,0.074 1.979,0.074C1.933,0.074 1.872,0.069 1.8,0.056C1.724,0.044 1.678,0.038 1.652,0.038C1.212,-0.01 0.197,-0.037 -1.391,-0.037C-2.565,-0.037 -3.286,-0.046 -3.555,-0.072C-3.823,-0.095 -4.007,-0.169 -4.104,-0.292C-4.252,-0.463 -4.263,-0.67 -4.142,-0.916C-4.043,-1.084 -3.928,-1.19 -3.792,-1.228C-3.659,-1.264 -3.383,-1.282 -2.968,-1.282C-2.381,-1.282 -2.051,-1.318 -1.978,-1.392C-1.881,-1.489 -1.831,-5.424 -1.831,-13.197C-1.831,-15.298 -1.844,-16.398 -1.868,-16.498C-1.893,-16.644 -1.941,-16.728 -2.015,-16.753C-2.088,-16.777 -2.248,-16.767 -2.491,-16.718C-3.029,-16.644 -3.518,-16.608 -3.958,-16.608C-4.325,-16.608 -4.544,-16.644 -4.618,-16.718C-4.716,-16.815 -4.747,-16.979 -4.709,-17.211C-4.672,-17.445 -4.594,-17.585 -4.472,-17.633C-3.983,-17.756 -2.491,-17.938 0,-18.183" style="fill:rgb(25,47,96);fill-rule:nonzero;stroke:rgb(25,47,96);stroke-width:0.65px;"/>
                </g>
                <g transform="matrix(1,0,0,4.3159,191.163,118.562)">
                    <path d="M0,-17.047C0.44,-17.121 1.025,-17.157 1.759,-17.157C2.908,-17.157 3.751,-17.096 4.289,-16.976C5.094,-16.756 5.767,-16.364 6.304,-15.802C6.818,-15.265 7.143,-14.86 7.276,-14.592C7.411,-14.323 7.478,-13.943 7.478,-13.454C7.478,-12.552 7.258,-12.063 6.818,-11.989C6.598,-11.941 6.444,-11.963 6.36,-12.063C6.273,-12.16 6.281,-12.293 6.378,-12.465C6.427,-12.539 6.452,-12.672 6.452,-12.868C6.452,-13.626 6.122,-14.311 5.462,-14.922C4.68,-15.631 3.652,-15.986 2.381,-15.986C1.941,-15.986 1.598,-15.974 1.355,-15.947C0.01,-15.825 -1.041,-15.569 -1.798,-15.178C-3.095,-14.492 -4.094,-13.247 -4.803,-11.439C-5.268,-10.291 -5.501,-9.091 -5.501,-7.846C-5.501,-5.621 -4.803,-3.887 -3.412,-2.639C-2.604,-1.956 -1.961,-1.496 -1.486,-1.266C-1.01,-1.033 -0.453,-0.915 0.182,-0.915C1.33,-0.915 2.565,-1.235 3.885,-1.869C4.693,-2.261 5.191,-2.634 5.388,-2.987C5.583,-3.343 5.683,-4.007 5.683,-4.986C5.683,-5.498 5.669,-5.871 5.644,-6.105C5.621,-6.337 5.583,-6.557 5.534,-6.764C5.485,-6.972 5.411,-7.107 5.314,-7.168C5.217,-7.23 5.071,-7.26 4.874,-7.26C4.631,-7.26 4.35,-7.222 4.033,-7.151C3.25,-7.002 2.772,-6.879 2.601,-6.782C2.406,-6.685 2.199,-6.636 1.979,-6.636C1.562,-6.636 1.355,-6.82 1.355,-7.186C1.355,-7.381 1.44,-7.552 1.611,-7.7C1.782,-7.846 1.979,-7.92 2.199,-7.92C2.371,-7.92 2.821,-7.991 3.555,-8.14C4.24,-8.286 4.826,-8.36 5.314,-8.36C5.534,-8.36 5.741,-8.334 5.938,-8.286C6.109,-8.237 6.291,-8.04 6.488,-7.7C6.659,-7.381 6.744,-7.015 6.744,-6.601C6.744,-6.526 6.739,-6.342 6.726,-6.051C6.713,-5.757 6.708,-5.498 6.708,-5.278C6.682,-3.984 6.598,-3.189 6.452,-2.898C6.255,-2.432 5.78,-1.943 5.022,-1.43C4.263,-0.915 3.542,-0.585 2.859,-0.44C2.394,-0.343 1.928,-0.233 1.465,-0.11C1,0.036 0.56,0.11 0.146,0.11C-0.343,0.11 -0.831,0.025 -1.32,-0.146C-1.882,-0.318 -2.616,-0.782 -3.521,-1.539C-4.279,-2.176 -4.841,-2.749 -5.207,-3.263C-5.573,-3.777 -5.879,-4.437 -6.123,-5.242C-6.368,-5.951 -6.491,-6.892 -6.491,-8.066C-6.491,-8.897 -6.465,-9.465 -6.417,-9.772C-6.368,-10.076 -6.222,-10.582 -5.977,-11.293C-5.634,-12.293 -5.348,-13.009 -5.115,-13.437C-4.885,-13.863 -4.547,-14.311 -4.107,-14.774C-2.91,-16.022 -1.54,-16.778 0,-17.047" style="fill:rgb(25,47,96);fill-rule:nonzero;stroke:rgb(25,47,96);stroke-width:0.65px;"/>
                </g>
                <g transform="matrix(1,0,0,4.3159,215.064,127.271)">
                    <path d="M0,-19.104C0.245,-19.444 0.526,-19.482 0.844,-19.213C0.966,-19.091 1.046,-18.823 1.082,-18.406C1.12,-17.992 1.138,-16.818 1.138,-14.886C1.138,-12.516 1.112,-9.399 1.063,-5.537L0.989,-0.258L0.66,0.036C0.417,0.279 0.197,0.378 0,0.328C-0.146,0.304 -0.256,0.059 -0.33,-0.404C-0.379,-0.87 -1.074,-2.47 -2.419,-5.207C-2.737,-5.916 -3.054,-6.514 -3.374,-7.004C-3.69,-7.494 -4.064,-8.025 -4.491,-8.598C-4.918,-9.173 -5.266,-9.657 -5.534,-10.048C-5.754,-10.414 -6.25,-11.117 -7.02,-12.156C-7.79,-13.194 -8.261,-13.835 -8.432,-14.081C-8.629,-14.373 -9.043,-14.856 -9.677,-15.529C-10.314,-16.201 -10.754,-16.597 -10.997,-16.72C-11.291,-16.891 -11.45,-16.915 -11.475,-16.791C-11.621,-16.401 -11.695,-14.79 -11.695,-11.954C-11.695,-11.342 -11.682,-10.987 -11.657,-10.889C-11.585,-10.546 -11.524,-8.958 -11.475,-6.125C-11.427,-3.435 -11.353,-1.811 -11.255,-1.249C-11.229,-1.102 -11.217,-0.918 -11.217,-0.699C-11.217,-0.039 -11.401,0.292 -11.767,0.292C-11.89,0.292 -12.025,0.255 -12.171,0.181L-12.5,0.036L-12.465,-4.475L-12.465,-7.004C-12.465,-10.304 -12.478,-12.59 -12.5,-13.861L-12.611,-18.774L-12.281,-18.994L-11.915,-19.213L-10.557,-17.856C-9.018,-16.341 -7.905,-15.155 -7.222,-14.301C-6.757,-13.712 -6.115,-12.82 -5.296,-11.624C-4.478,-10.426 -3.934,-9.644 -3.665,-9.278C-2.64,-7.982 -1.905,-6.882 -1.466,-5.977C-1.271,-5.585 -0.929,-4.916 -0.44,-3.961L-0.146,-3.301L-0.036,-6.601C0.038,-8.8 0.074,-10.867 0.074,-12.797C0.074,-16.022 0,-17.905 -0.146,-18.444C-0.22,-18.638 -0.171,-18.858 0,-19.104" style="fill:rgb(25,47,96);fill-rule:nonzero;stroke:rgb(25,47,96);stroke-width:0.65px;"/>
                </g>
                <g transform="matrix(1,0,0,4.3159,252.162,106.119)">
                    <path d="M0,-10.206C0,-10.228 -0.141,-10.541 -0.422,-11.142C-0.703,-11.74 -0.857,-12.039 -0.88,-12.039C-0.977,-12.039 -1.169,-11.696 -1.448,-11.011C-1.729,-10.328 -1.87,-9.863 -1.87,-9.62C-1.87,-9.546 -2.028,-9.119 -2.348,-8.336C-2.665,-7.602 -2.982,-6.697 -3.299,-5.623C-3.619,-4.546 -3.777,-3.838 -3.777,-3.498C-3.777,-3.227 -2.468,-3.094 0.146,-3.094C0.806,-3.094 1.258,-3.106 1.504,-3.129C2.041,-3.178 2.366,-3.222 2.476,-3.257C2.585,-3.296 2.639,-3.388 2.639,-3.533C2.639,-3.705 2.406,-4.303 1.943,-5.329C1.601,-6.086 1.192,-7.065 0.716,-8.262C0.238,-9.459 0,-10.108 0,-10.206M-2.934,-9.84C-2.934,-9.937 -2.823,-10.298 -2.604,-10.922C-2.383,-11.543 -2.273,-11.917 -2.273,-12.039C-2.273,-12.282 -2.199,-12.563 -2.054,-12.883C-1.905,-13.2 -1.785,-13.359 -1.686,-13.359C-1.588,-13.359 -1.455,-13.443 -1.284,-13.614C-1.087,-13.811 -0.867,-13.895 -0.624,-13.873C-0.427,-13.848 -0.276,-13.75 -0.167,-13.579C-0.056,-13.407 0.171,-12.919 0.514,-12.111C1.051,-10.939 1.319,-10.303 1.319,-10.206C1.319,-10.034 1.575,-9.326 2.089,-8.08C2.335,-7.492 2.542,-6.96 2.713,-6.484C2.885,-6.009 3.036,-5.598 3.171,-5.257C3.304,-4.914 3.506,-4.475 3.777,-3.937C3.946,-3.618 4.209,-3.037 4.565,-2.196C4.918,-1.352 5.181,-0.771 5.353,-0.454L6.048,0.865C6.537,1.747 6.831,2.236 6.928,2.333C7.051,2.505 7.112,2.725 7.112,2.993C7.112,3.238 7.063,3.41 6.966,3.507C6.843,3.63 6.708,3.689 6.562,3.689C6.342,3.689 6.123,3.592 5.902,3.398C5.683,3.2 5.537,2.957 5.462,2.663C5.437,2.518 5.243,2.052 4.877,1.27C4.754,1.05 4.565,0.671 4.307,0.134C4.051,-0.403 3.887,-0.746 3.813,-0.894L3.228,-2.065L1.759,-1.955C0.734,-1.907 0.036,-1.884 -0.33,-1.884C-1.187,-1.884 -1.747,-1.933 -2.018,-2.029C-2.31,-2.103 -2.665,-2.14 -3.079,-2.14C-3.667,-2.14 -4.02,-2.091 -4.143,-1.994C-4.24,-1.92 -4.455,-1.388 -4.785,-0.398C-5.115,0.592 -5.278,1.185 -5.278,1.379C-5.278,1.428 -5.378,1.722 -5.573,2.259C-5.695,2.602 -5.788,2.809 -5.849,2.883C-5.91,2.957 -6.038,2.981 -6.232,2.957C-6.624,2.932 -6.821,2.786 -6.821,2.518C-6.821,2.369 -6.782,2.224 -6.71,2.077C-6.465,1.538 -6.148,0.573 -5.757,-0.82C-5.585,-1.454 -5.312,-2.378 -4.931,-3.587C-4.552,-4.797 -4.34,-5.5 -4.289,-5.697C-4.289,-5.72 -4.064,-6.356 -3.611,-7.602C-3.158,-8.851 -2.934,-9.595 -2.934,-9.84" style="fill:rgb(25,47,96);fill-rule:nonzero;stroke:rgb(25,47,96);stroke-width:0.65px;"/>
                </g>
                <g transform="matrix(1,0,0,4.3159,275.772,127.271)">
                    <path d="M0,-19.104C0.245,-19.444 0.527,-19.482 0.844,-19.213C0.966,-19.091 1.046,-18.823 1.082,-18.406C1.12,-17.992 1.138,-16.818 1.138,-14.886C1.138,-12.516 1.112,-9.399 1.063,-5.537L0.99,-0.258L0.66,0.036C0.417,0.279 0.197,0.378 0,0.328C-0.146,0.304 -0.256,0.059 -0.33,-0.404C-0.379,-0.87 -1.074,-2.47 -2.419,-5.207C-2.737,-5.916 -3.054,-6.514 -3.374,-7.004C-3.69,-7.494 -4.064,-8.025 -4.491,-8.598C-4.918,-9.173 -5.266,-9.657 -5.534,-10.048C-5.754,-10.414 -6.25,-11.117 -7.02,-12.156C-7.79,-13.194 -8.261,-13.835 -8.432,-14.081C-8.629,-14.373 -9.043,-14.856 -9.677,-15.529C-10.314,-16.201 -10.754,-16.597 -10.997,-16.72C-11.291,-16.891 -11.45,-16.915 -11.475,-16.791C-11.621,-16.401 -11.695,-14.79 -11.695,-11.954C-11.695,-11.342 -11.682,-10.987 -11.657,-10.889C-11.585,-10.546 -11.524,-8.958 -11.475,-6.125C-11.427,-3.435 -11.353,-1.811 -11.255,-1.249C-11.229,-1.102 -11.217,-0.918 -11.217,-0.699C-11.217,-0.039 -11.401,0.292 -11.767,0.292C-11.89,0.292 -12.025,0.255 -12.171,0.181L-12.5,0.036L-12.465,-4.475L-12.465,-7.004C-12.465,-10.304 -12.478,-12.59 -12.5,-13.861L-12.611,-18.774L-12.281,-18.994L-11.915,-19.213L-10.557,-17.856C-9.018,-16.341 -7.905,-15.155 -7.222,-14.301C-6.757,-13.712 -6.115,-12.82 -5.296,-11.624C-4.478,-10.426 -3.934,-9.644 -3.665,-9.278C-2.64,-7.982 -1.905,-6.882 -1.465,-5.977C-1.271,-5.585 -0.929,-4.916 -0.44,-3.961L-0.146,-3.301L-0.036,-6.601C0.038,-8.8 0.074,-10.867 0.074,-12.797C0.074,-16.022 0,-17.905 -0.146,-18.444C-0.22,-18.638 -0.171,-18.858 0,-19.104" style="fill:rgb(25,47,96);fill-rule:nonzero;stroke:rgb(25,47,96);stroke-width:0.65px;"/>
                </g>
                <g transform="matrix(1,0,0,4.3159,285.522,123.145)">
                    <path d="M0,-18.183C0.537,-18.232 0.893,-18.257 1.064,-18.257L1.21,-18.257C1.552,-18.183 1.724,-17.963 1.724,-17.598C1.724,-17.255 1.578,-17.048 1.284,-16.974C0.99,-16.925 0.624,-16.912 0.184,-16.938C-0.353,-16.987 -0.634,-16.987 -0.66,-16.938C-0.708,-16.864 -0.765,-15.616 -0.823,-13.197C-0.885,-10.777 -0.916,-8.895 -0.916,-7.552C-0.916,-6.084 -0.854,-4.827 -0.734,-3.775C-0.66,-3.041 -0.624,-2.455 -0.624,-2.016L-0.624,-1.757C-0.647,-1.563 -0.585,-1.466 -0.44,-1.466C0.734,-1.44 1.417,-1.343 1.614,-1.171C1.688,-1.097 1.895,-0.975 2.238,-0.806C2.529,-0.683 2.678,-0.512 2.678,-0.292C2.678,-0.046 2.445,0.074 1.979,0.074C1.931,0.074 1.87,0.069 1.798,0.056C1.724,0.044 1.675,0.038 1.649,0.038C1.21,-0.01 0.197,-0.037 -1.394,-0.037C-2.565,-0.037 -3.286,-0.046 -3.555,-0.072C-3.826,-0.095 -4.007,-0.169 -4.104,-0.292C-4.253,-0.463 -4.266,-0.67 -4.143,-0.916C-4.046,-1.084 -3.928,-1.19 -3.795,-1.228C-3.66,-1.264 -3.386,-1.282 -2.969,-1.282C-2.383,-1.282 -2.053,-1.318 -1.979,-1.392C-1.882,-1.489 -1.833,-5.424 -1.833,-13.197C-1.833,-15.298 -1.846,-16.398 -1.869,-16.498C-1.895,-16.644 -1.943,-16.728 -2.015,-16.753C-2.089,-16.777 -2.248,-16.767 -2.493,-16.718C-3.03,-16.644 -3.519,-16.608 -3.958,-16.608C-4.324,-16.608 -4.547,-16.644 -4.619,-16.718C-4.716,-16.815 -4.747,-16.979 -4.71,-17.211C-4.675,-17.445 -4.596,-17.585 -4.473,-17.633C-3.984,-17.756 -2.493,-17.938 0,-18.183" style="fill:rgb(25,47,96);fill-rule:nonzero;stroke:rgb(25,47,96);stroke-width:0.65px;"/>
                </g>
                <g transform="matrix(1,0,0,4.3159,307.373,129.002)">
                    <path d="M0,-21.3C0.048,-21.325 0.123,-21.336 0.22,-21.336C0.439,-21.336 0.55,-21.238 0.55,-21.044C0.55,-20.97 0.501,-20.834 0.404,-20.64C0.353,-20.592 0.33,-20.407 0.33,-20.09C0.33,-19.602 0.353,-19.137 0.404,-18.696C0.501,-17.891 0.567,-16.497 0.604,-14.518C0.642,-12.538 0.665,-10.388 0.677,-8.066C0.69,-5.743 0.708,-4.301 0.734,-3.738C0.757,-3.201 0.77,-2.603 0.77,-1.944C0.77,-1.233 0.708,-0.721 0.585,-0.404C0.439,-0.11 0.268,0.036 0.074,0.036C-0.049,0.036 -0.159,-0.048 -0.256,-0.22C-0.33,-0.342 -0.366,-0.964 -0.366,-2.089C-0.366,-2.26 -0.361,-2.639 -0.348,-3.225C-0.338,-3.813 -0.33,-4.314 -0.33,-4.729C-0.33,-5.045 -0.325,-5.554 -0.312,-6.25C-0.299,-6.948 -0.294,-7.478 -0.294,-7.846C-0.294,-14.347 -0.392,-17.695 -0.586,-17.891C-0.637,-17.94 -0.691,-17.927 -0.752,-17.856C-0.813,-17.781 -0.88,-17.646 -0.954,-17.451C-1.148,-16.84 -1.54,-15.728 -2.128,-14.113C-2.713,-12.5 -3.228,-11.078 -3.667,-9.843C-4.107,-8.608 -4.327,-7.917 -4.327,-7.772C-4.327,-7.674 -4.376,-7.526 -4.473,-7.331C-4.521,-7.257 -4.67,-6.879 -4.913,-6.196C-5.67,-4.069 -6.074,-2.823 -6.123,-2.454C-6.148,-2.089 -6.281,-1.833 -6.527,-1.685C-6.724,-1.588 -6.844,-1.539 -6.893,-1.539C-7.212,-1.539 -7.493,-1.904 -7.736,-2.639C-8.005,-3.396 -8.312,-4.117 -8.652,-4.802C-9.289,-6.171 -9.716,-7.235 -9.936,-7.991C-10.181,-8.822 -10.744,-10.142 -11.624,-11.95C-12.135,-13.027 -12.393,-13.59 -12.393,-13.638C-12.393,-13.712 -12.417,-13.771 -12.465,-13.822C-12.539,-13.845 -12.705,-14.071 -12.961,-14.5C-13.217,-14.927 -13.45,-15.349 -13.657,-15.763C-13.866,-16.18 -13.981,-16.387 -14.004,-16.387C-14.056,-16.387 -14.114,-15.771 -14.188,-14.535C-14.263,-13.301 -14.298,-12.306 -14.298,-11.549C-14.298,-10.129 -14.263,-8.26 -14.188,-5.938C-14.166,-5.058 -14.153,-3.897 -14.153,-2.454C-14.153,-1.723 -14.166,-1.32 -14.188,-1.245C-14.263,-0.928 -14.396,-0.757 -14.593,-0.734C-14.787,-0.683 -14.91,-0.734 -14.958,-0.879C-15.106,-1.271 -15.204,-5.388 -15.252,-13.235L-15.252,-14.922C-15.252,-15.508 -15.257,-16.022 -15.271,-16.461C-15.283,-16.902 -15.288,-17.303 -15.288,-17.671L-15.288,-18.916C-15.288,-19.113 -15.217,-19.272 -15.068,-19.395C-14.897,-19.515 -14.774,-19.576 -14.703,-19.576C-14.531,-19.576 -14.347,-19.418 -14.153,-19.101C-13.956,-18.783 -13.626,-18.172 -13.163,-17.267C-12.552,-16.093 -12.112,-15.3 -11.843,-14.884C-11.769,-14.786 -11.733,-14.702 -11.733,-14.628C-11.733,-14.603 -11.549,-14.2 -11.184,-13.418C-10.792,-12.587 -10.414,-11.743 -10.045,-10.889C-9.851,-10.398 -9.613,-9.813 -9.332,-9.129C-9.051,-8.445 -8.774,-7.808 -8.506,-7.222C-8.458,-7.099 -8.401,-6.958 -8.342,-6.8C-8.281,-6.641 -8.225,-6.527 -8.176,-6.452L-8.14,-6.306C-8.14,-6.206 -7.956,-5.805 -7.59,-5.097C-7.222,-4.386 -7.015,-4.032 -6.966,-4.032C-6.869,-4.032 -6.734,-4.204 -6.562,-4.547C-6.391,-4.887 -6.202,-5.358 -5.995,-5.956C-5.788,-6.557 -5.591,-7.116 -5.409,-7.644C-5.225,-8.168 -5.023,-8.761 -4.803,-9.421C-4.583,-10.081 -4.45,-10.497 -4.399,-10.669C-3.985,-11.792 -3.519,-13.186 -3.008,-14.848C-2.665,-15.922 -2.384,-16.779 -2.164,-17.413C-1.847,-18.319 -1.688,-18.868 -1.688,-19.065C-1.688,-19.308 -1.553,-19.54 -1.284,-19.761C-1.039,-19.955 -0.916,-20.113 -0.916,-20.237C-0.916,-20.333 -0.795,-20.526 -0.55,-20.807C-0.307,-21.085 -0.123,-21.251 0,-21.3" style="fill:rgb(25,47,96);fill-rule:nonzero;stroke:rgb(25,47,96);stroke-width:0.65px;"/>
                </g>
                <g transform="matrix(1,0,0,4.3159,318.812,106.119)">
                    <path d="M0,-10.206C0,-10.228 -0.141,-10.541 -0.422,-11.142C-0.703,-11.74 -0.857,-12.039 -0.88,-12.039C-0.977,-12.039 -1.169,-11.696 -1.448,-11.011C-1.729,-10.328 -1.87,-9.863 -1.87,-9.62C-1.87,-9.546 -2.028,-9.119 -2.348,-8.336C-2.665,-7.602 -2.982,-6.697 -3.299,-5.623C-3.619,-4.546 -3.777,-3.838 -3.777,-3.498C-3.777,-3.227 -2.468,-3.094 0.146,-3.094C0.806,-3.094 1.258,-3.106 1.504,-3.129C2.041,-3.178 2.366,-3.222 2.476,-3.257C2.585,-3.296 2.639,-3.388 2.639,-3.533C2.639,-3.705 2.406,-4.303 1.943,-5.329C1.601,-6.086 1.192,-7.065 0.716,-8.262C0.238,-9.459 0,-10.108 0,-10.206M-2.934,-9.84C-2.934,-9.937 -2.823,-10.298 -2.604,-10.922C-2.383,-11.543 -2.273,-11.917 -2.273,-12.039C-2.273,-12.282 -2.199,-12.563 -2.054,-12.883C-1.905,-13.2 -1.785,-13.359 -1.686,-13.359C-1.588,-13.359 -1.455,-13.443 -1.284,-13.614C-1.087,-13.811 -0.867,-13.895 -0.624,-13.873C-0.427,-13.848 -0.276,-13.75 -0.167,-13.579C-0.056,-13.407 0.171,-12.919 0.514,-12.111C1.051,-10.939 1.319,-10.303 1.319,-10.206C1.319,-10.034 1.575,-9.326 2.089,-8.08C2.335,-7.492 2.542,-6.96 2.713,-6.484C2.885,-6.009 3.036,-5.598 3.171,-5.257C3.304,-4.914 3.506,-4.475 3.777,-3.937C3.946,-3.618 4.209,-3.037 4.565,-2.196C4.918,-1.352 5.181,-0.771 5.353,-0.454L6.048,0.865C6.537,1.747 6.831,2.236 6.928,2.333C7.051,2.505 7.112,2.725 7.112,2.993C7.112,3.238 7.063,3.41 6.966,3.507C6.843,3.63 6.708,3.689 6.562,3.689C6.342,3.689 6.123,3.592 5.902,3.398C5.683,3.2 5.537,2.957 5.462,2.663C5.437,2.518 5.243,2.052 4.877,1.27C4.754,1.05 4.565,0.671 4.307,0.134C4.051,-0.403 3.887,-0.746 3.813,-0.894L3.228,-2.065L1.759,-1.955C0.734,-1.907 0.036,-1.884 -0.33,-1.884C-1.187,-1.884 -1.747,-1.933 -2.018,-2.029C-2.31,-2.103 -2.665,-2.14 -3.079,-2.14C-3.667,-2.14 -4.02,-2.091 -4.143,-1.994C-4.24,-1.92 -4.455,-1.388 -4.785,-0.398C-5.115,0.592 -5.278,1.185 -5.278,1.379C-5.278,1.428 -5.378,1.722 -5.573,2.259C-5.695,2.602 -5.788,2.809 -5.849,2.883C-5.91,2.957 -6.038,2.981 -6.232,2.957C-6.624,2.932 -6.821,2.786 -6.821,2.518C-6.821,2.369 -6.782,2.224 -6.71,2.077C-6.465,1.538 -6.148,0.573 -5.757,-0.82C-5.585,-1.454 -5.312,-2.378 -4.931,-3.587C-4.552,-4.797 -4.34,-5.5 -4.289,-5.697C-4.289,-5.72 -4.063,-6.356 -3.611,-7.602C-3.158,-8.851 -2.934,-9.595 -2.934,-9.84" style="fill:rgb(25,47,96);fill-rule:nonzero;stroke:rgb(25,47,96);stroke-width:0.65px;"/>
                </g>
                <g transform="matrix(1,0,0,4.3159,107.999,101.584)">
                    <path d="M0,-10.502C0.146,-10.648 0.32,-10.728 0.524,-10.743C0.728,-10.757 0.875,-10.706 0.962,-10.59C1.05,-10.415 1.093,-9.54 1.093,-7.967L1.093,-6.741C1.093,-5.983 1.225,-5.605 1.487,-5.605C1.632,-5.605 2.23,-5.779 3.279,-6.13C4.387,-6.48 5.101,-6.654 5.422,-6.654C5.625,-6.654 5.786,-6.596 5.903,-6.48C6.019,-6.333 6.057,-6.137 6.012,-5.889C5.968,-5.641 5.874,-5.474 5.728,-5.387C5.086,-5.182 4.62,-5.036 4.329,-4.949C2.842,-4.541 2.099,-4.25 2.099,-4.074C2.099,-3.929 2.143,-3.856 2.23,-3.856C2.288,-3.856 2.463,-3.695 2.755,-3.375C3.046,-3.055 3.33,-2.711 3.608,-2.347C3.884,-1.982 4.038,-1.785 4.067,-1.757C4.212,-1.582 4.285,-1.363 4.285,-1.101C4.285,-0.839 4.183,-0.648 3.979,-0.532C3.892,-0.474 3.761,-0.445 3.586,-0.445C3.235,-0.445 2.871,-0.678 2.492,-1.145C2.026,-1.785 1.567,-2.347 1.115,-2.829C0.663,-3.31 0.364,-3.55 0.218,-3.55C0.014,-3.55 -0.379,-3.23 -0.962,-2.587C-1.545,-1.946 -1.939,-1.421 -2.143,-1.014C-2.376,-0.518 -2.58,-0.183 -2.755,-0.008C-2.93,0.167 -3.148,0.255 -3.411,0.255C-3.615,0.255 -3.754,0.218 -3.826,0.145C-3.899,0.072 -3.964,-0.109 -4.023,-0.401L-4.198,-1.014L-2.886,-2.326C-1.691,-3.521 -1.093,-4.25 -1.093,-4.512C-1.093,-4.6 -1.196,-4.68 -1.399,-4.752C-1.604,-4.825 -1.837,-4.891 -2.099,-4.949C-2.361,-5.007 -2.507,-5.051 -2.536,-5.08C-2.595,-5.109 -3.003,-5.299 -3.76,-5.648C-4.752,-6.027 -5.248,-6.392 -5.248,-6.741C-5.248,-6.829 -5.233,-6.887 -5.204,-6.916C-5.116,-7.149 -4.956,-7.268 -4.723,-7.268C-4.344,-7.268 -3.44,-6.975 -2.012,-6.392C-1.108,-6.071 -0.598,-5.911 -0.481,-5.911C-0.335,-5.911 -0.262,-6.64 -0.262,-8.097C-0.262,-9.555 -0.175,-10.356 0,-10.502" style="fill:rgb(25,47,96);fill-rule:nonzero;stroke:rgb(25,47,96);stroke-width:0.65px;"/>
                </g>
                <g transform="matrix(1,0,0,4.3159,230.963,104.413)">
                    <path d="M0,-10.502C0.146,-10.648 0.32,-10.728 0.524,-10.743C0.728,-10.757 0.875,-10.706 0.962,-10.59C1.049,-10.415 1.093,-9.54 1.093,-7.967L1.093,-6.741C1.093,-5.983 1.224,-5.605 1.486,-5.605C1.632,-5.605 2.23,-5.779 3.279,-6.13C4.387,-6.48 5.101,-6.654 5.422,-6.654C5.625,-6.654 5.786,-6.596 5.903,-6.48C6.019,-6.333 6.056,-6.137 6.012,-5.889C5.968,-5.641 5.874,-5.474 5.728,-5.387C5.086,-5.182 4.62,-5.036 4.329,-4.949C2.842,-4.541 2.099,-4.25 2.099,-4.074C2.099,-3.929 2.143,-3.856 2.23,-3.856C2.288,-3.856 2.462,-3.695 2.755,-3.375C3.046,-3.055 3.33,-2.712 3.607,-2.347C3.884,-1.982 4.037,-1.785 4.066,-1.757C4.212,-1.582 4.285,-1.363 4.285,-1.101C4.285,-0.839 4.183,-0.648 3.979,-0.532C3.892,-0.474 3.76,-0.445 3.585,-0.445C3.235,-0.445 2.871,-0.678 2.492,-1.145C2.025,-1.785 1.566,-2.347 1.115,-2.829C0.663,-3.31 0.364,-3.55 0.218,-3.55C0.014,-3.55 -0.38,-3.23 -0.962,-2.587C-1.545,-1.947 -1.939,-1.421 -2.143,-1.014C-2.376,-0.518 -2.58,-0.183 -2.755,-0.008C-2.93,0.167 -3.148,0.255 -3.411,0.255C-3.615,0.255 -3.754,0.218 -3.827,0.145C-3.899,0.072 -3.965,-0.109 -4.023,-0.401L-4.198,-1.014L-2.886,-2.326C-1.691,-3.521 -1.094,-4.25 -1.094,-4.512C-1.094,-4.6 -1.196,-4.68 -1.399,-4.752C-1.604,-4.825 -1.837,-4.891 -2.099,-4.949C-2.361,-5.007 -2.507,-5.051 -2.536,-5.08C-2.595,-5.109 -3.003,-5.299 -3.761,-5.648C-4.752,-6.027 -5.248,-6.392 -5.248,-6.741C-5.248,-6.829 -5.233,-6.887 -5.204,-6.916C-5.116,-7.149 -4.956,-7.268 -4.723,-7.268C-4.344,-7.268 -3.44,-6.975 -2.012,-6.392C-1.108,-6.071 -0.598,-5.911 -0.481,-5.911C-0.335,-5.911 -0.262,-6.64 -0.262,-8.098C-0.262,-9.555 -0.175,-10.356 0,-10.502" style="fill:rgb(25,47,96);fill-rule:nonzero;stroke:rgb(25,47,96);stroke-width:0.65px;"/>
                </g>
                <g transform="matrix(1,0,0,4.3159,336.739,128.535)">
                    <path d="M0,-18.847C0.708,-18.847 1.583,-18.874 2.621,-18.936C3.66,-18.997 4.78,-19.029 5.977,-19.029C8.202,-19.029 9.362,-18.956 9.459,-18.808C9.508,-18.711 9.534,-18.637 9.534,-18.588C9.534,-18.394 9.429,-18.192 9.222,-17.985C9.012,-17.775 8.8,-17.673 8.58,-17.673C8.531,-17.673 8.457,-17.696 8.36,-17.747C8.312,-17.795 7.7,-17.819 6.526,-17.819C3.179,-17.819 1.455,-17.747 1.358,-17.599C1.307,-17.501 1.284,-16.547 1.284,-14.74C1.284,-12.858 1.222,-11.586 1.1,-10.926C1.028,-10.341 0.99,-9.779 0.99,-9.242C0.99,-8.921 0.967,-8.251 0.918,-7.223C0.893,-6.954 0.856,-5.526 0.808,-2.935C0.783,-1.076 0.698,-0.076 0.55,0.073C0.453,0.144 0.307,0.182 0.11,0.182C-0.084,0.182 -0.233,0.095 -0.33,-0.076C-0.427,-0.244 -0.476,-0.636 -0.476,-1.246C-0.476,-1.81 -0.44,-2.408 -0.366,-3.044C-0.22,-4.167 -0.084,-6.33 0.038,-9.533C0.087,-10.804 0.11,-12.443 0.11,-14.446L0.11,-17.708L-0.33,-17.673C-0.524,-17.673 -1.54,-17.55 -3.373,-17.305C-3.47,-17.282 -4.033,-17.22 -5.059,-17.123C-5.596,-17.075 -5.902,-17.049 -5.974,-17.049C-6.439,-17.049 -6.672,-17.22 -6.672,-17.563C-6.672,-17.806 -6.593,-17.967 -6.435,-18.038C-6.276,-18.113 -5.951,-18.149 -5.462,-18.149C-4.777,-18.149 -4.289,-18.187 -3.995,-18.258C-2.235,-18.65 -0.903,-18.847 0,-18.847" style="fill:rgb(25,47,96);fill-rule:nonzero;stroke:rgb(25,47,96);stroke-width:0.65px;"/>
                </g>
                <g transform="matrix(1,0,0,4.3159,355.106,123.145)">
                    <path d="M0,-18.183C0.537,-18.232 0.893,-18.257 1.063,-18.257L1.209,-18.257C1.552,-18.183 1.724,-17.963 1.724,-17.598C1.724,-17.255 1.578,-17.048 1.284,-16.974C0.99,-16.925 0.624,-16.912 0.184,-16.938C-0.353,-16.987 -0.634,-16.987 -0.66,-16.938C-0.708,-16.864 -0.765,-15.616 -0.824,-13.197C-0.885,-10.777 -0.916,-8.895 -0.916,-7.552C-0.916,-6.084 -0.854,-4.827 -0.734,-3.775C-0.66,-3.041 -0.624,-2.455 -0.624,-2.016L-0.624,-1.757C-0.647,-1.563 -0.586,-1.466 -0.44,-1.466C0.734,-1.44 1.417,-1.343 1.614,-1.171C1.687,-1.097 1.895,-0.975 2.237,-0.806C2.529,-0.683 2.677,-0.512 2.677,-0.292C2.677,-0.046 2.445,0.074 1.979,0.074C1.931,0.074 1.869,0.069 1.798,0.056C1.724,0.044 1.675,0.038 1.649,0.038C1.209,-0.01 0.197,-0.037 -1.394,-0.037C-2.565,-0.037 -3.287,-0.046 -3.555,-0.072C-3.826,-0.095 -4.008,-0.169 -4.105,-0.292C-4.253,-0.463 -4.266,-0.67 -4.143,-0.916C-4.046,-1.084 -3.928,-1.19 -3.795,-1.228C-3.66,-1.264 -3.386,-1.282 -2.969,-1.282C-2.384,-1.282 -2.054,-1.318 -1.979,-1.392C-1.882,-1.489 -1.834,-5.424 -1.834,-13.197C-1.834,-15.298 -1.847,-16.398 -1.87,-16.498C-1.895,-16.644 -1.944,-16.728 -2.015,-16.753C-2.089,-16.777 -2.248,-16.767 -2.494,-16.718C-3.031,-16.644 -3.519,-16.608 -3.959,-16.608C-4.325,-16.608 -4.547,-16.644 -4.619,-16.718C-4.716,-16.815 -4.747,-16.979 -4.711,-17.211C-4.675,-17.445 -4.596,-17.585 -4.473,-17.633C-3.984,-17.756 -2.494,-17.938 0,-18.183" style="fill:rgb(25,47,96);fill-rule:nonzero;stroke:rgb(25,47,96);stroke-width:0.65px;"/>
                </g>
                <g transform="matrix(1,0,0,4.3159,372.118,116.035)">
                    <path d="M0,-15.071C-0.369,-15.291 -0.642,-15.419 -0.826,-15.455C-1.01,-15.49 -1.407,-15.51 -2.018,-15.51C-2.946,-15.51 -3.593,-15.449 -3.961,-15.327C-4.473,-15.155 -4.816,-15.046 -4.987,-14.997C-5.575,-14.825 -6.069,-14.513 -6.473,-14.06C-6.875,-13.608 -7.358,-12.869 -7.92,-11.843C-8.777,-10.256 -9.204,-8.58 -9.204,-6.821C-9.204,-6.306 -9.143,-5.782 -9.02,-5.243C-8.654,-3.851 -7.946,-2.642 -6.895,-1.614C-6.135,-0.857 -5.409,-0.32 -4.713,0C-4.015,0.317 -3.205,0.476 -2.274,0.476L-2.092,0.476C-0.062,0.427 1.465,-0.088 2.491,-1.064C3.127,-1.652 3.751,-2.946 4.363,-4.951C4.583,-5.611 4.692,-6.112 4.692,-6.455C4.692,-6.796 4.667,-7.115 4.619,-7.406C4.398,-9.046 4.068,-10.327 3.629,-11.258C3.36,-11.818 2.943,-12.45 2.381,-13.145C1.818,-13.841 1.342,-14.299 0.951,-14.521C0.805,-14.592 0.488,-14.777 0,-15.071M-6.637,-15.621C-6.271,-15.912 -5.598,-16.18 -4.622,-16.426C-3.645,-16.67 -2.713,-16.792 -1.834,-16.792C-1.371,-16.792 -0.979,-16.757 -0.66,-16.682C0.023,-16.559 0.805,-16.193 1.685,-15.583C2.076,-15.314 2.534,-14.91 3.061,-14.373C3.585,-13.836 3.849,-13.493 3.849,-13.347C3.849,-13.248 3.933,-13.114 4.104,-12.943C4.301,-12.772 4.526,-12.436 4.782,-11.935C5.041,-11.434 5.168,-11.087 5.168,-10.889C5.168,-10.695 5.217,-10.388 5.314,-9.974C5.411,-9.557 5.498,-9.301 5.572,-9.204C5.741,-8.984 5.828,-8.005 5.828,-6.271C5.828,-6.05 5.621,-5.294 5.204,-3.998C4.79,-2.701 4.421,-1.859 4.104,-1.468C3.642,-0.906 3.347,-0.502 3.225,-0.258C2.956,0.181 2.381,0.585 1.501,0.951C0.621,1.32 -0.123,1.501 -0.734,1.501C-1.051,1.501 -1.223,1.539 -1.248,1.611C-1.322,1.685 -1.553,1.721 -1.944,1.721C-2.703,1.721 -3.337,1.637 -3.852,1.465C-4.731,1.197 -5.414,0.903 -5.905,0.585C-6.394,0.268 -6.966,-0.22 -7.626,-0.883C-8.532,-1.785 -9.173,-2.683 -9.552,-3.576C-9.931,-4.467 -10.158,-5.575 -10.229,-6.895C-10.255,-7.164 -10.268,-7.493 -10.268,-7.884C-10.268,-8.347 -10.181,-8.875 -10.01,-9.46C-9.521,-11.096 -9.056,-12.283 -8.616,-13.017C-8.496,-13.212 -8.378,-13.431 -8.268,-13.677C-8.158,-13.92 -8.079,-14.092 -8.03,-14.188C-7.982,-14.288 -7.902,-14.409 -7.792,-14.556C-7.683,-14.703 -7.534,-14.856 -7.353,-15.014C-7.168,-15.174 -6.931,-15.375 -6.637,-15.621" style="fill:rgb(25,47,96);fill-rule:nonzero;stroke:rgb(25,47,96);stroke-width:0.65px;"/>
                </g>
                <g transform="matrix(1,0,0,4.3159,394.334,127.271)">
                    <path d="M0,-19.104C0.246,-19.444 0.527,-19.482 0.844,-19.213C0.967,-19.091 1.046,-18.823 1.082,-18.406C1.12,-17.992 1.138,-16.818 1.138,-14.886C1.138,-12.516 1.112,-9.399 1.064,-5.537L0.99,-0.258L0.66,0.036C0.417,0.279 0.197,0.378 0,0.328C-0.146,0.304 -0.256,0.059 -0.33,-0.404C-0.378,-0.87 -1.074,-2.47 -2.419,-5.207C-2.736,-5.916 -3.054,-6.514 -3.373,-7.004C-3.69,-7.494 -4.064,-8.025 -4.491,-8.598C-4.918,-9.173 -5.266,-9.657 -5.534,-10.048C-5.754,-10.414 -6.25,-11.117 -7.02,-12.156C-7.79,-13.194 -8.26,-13.835 -8.432,-14.081C-8.629,-14.373 -9.043,-14.856 -9.677,-15.529C-10.314,-16.201 -10.754,-16.597 -10.997,-16.72C-11.291,-16.891 -11.449,-16.915 -11.475,-16.791C-11.621,-16.401 -11.695,-14.79 -11.695,-11.954C-11.695,-11.342 -11.682,-10.987 -11.657,-10.889C-11.585,-10.546 -11.523,-8.958 -11.475,-6.125C-11.426,-3.435 -11.352,-1.811 -11.255,-1.249C-11.229,-1.102 -11.217,-0.918 -11.217,-0.699C-11.217,-0.039 -11.401,0.292 -11.767,0.292C-11.889,0.292 -12.025,0.255 -12.17,0.181L-12.5,0.036L-12.465,-4.475L-12.465,-7.004C-12.465,-10.304 -12.478,-12.59 -12.5,-13.861L-12.61,-18.774L-12.281,-18.994L-11.915,-19.213L-10.557,-17.856C-9.018,-16.341 -7.905,-15.155 -7.222,-14.301C-6.757,-13.712 -6.115,-12.82 -5.296,-11.624C-4.478,-10.426 -3.933,-9.644 -3.665,-9.278C-2.639,-7.982 -1.905,-6.882 -1.465,-5.977C-1.271,-5.585 -0.928,-4.916 -0.44,-3.961L-0.146,-3.301L-0.036,-6.601C0.038,-8.8 0.074,-10.867 0.074,-12.797C0.074,-16.022 0,-17.905 -0.146,-18.444C-0.22,-18.638 -0.171,-18.858 0,-19.104" style="fill:rgb(25,47,96);fill-rule:nonzero;stroke:rgb(25,47,96);stroke-width:0.65px;"/>
                </g>
            </g>
        </g>
    </g>
</svg>
