<?xml version="1.0" encoding="UTF-8" standalone="no"?>
<!DOCTYPE svg PUBLIC "-//W3C//DTD SVG 1.1//EN" "http://www.w3.org/Graphics/SVG/1.1/DTD/svg11.dtd">
<svg width="100%" height="100%" viewBox="0 0 2388 2396" version="1.1" xmlns="http://www.w3.org/2000/svg" xmlns:xlink="http://www.w3.org/1999/xlink" xml:space="preserve" xmlns:serif="http://www.serif.com/" style="fill-rule:evenodd;clip-rule:evenodd;stroke-linejoin:round;stroke-miterlimit:2;">
    <g transform="matrix(1,0,0,1,0,-2785.37)">
        <g id="Taioh-Colour-1A-Circle-No-Type" serif:id="Taioh Colour 1A Circle No Type" transform="matrix(0.680742,0,0,0.96571,0,2785.37)">
            <rect x="0" y="0" width="3507.87" height="2480.32" style="fill:none;"/>
            <g transform="matrix(1.28464,0,0,1.06429,-822.571,-13.4594)">
                <g transform="matrix(1.37539,0,0,1.17026,-406.725,-3494.77)">
                    <circle cx="1753.94" cy="3992.83" r="915.354" style="fill:rgb(167,56,54);"/>
                </g>
                <g transform="matrix(1.1435,0,0,0.972954,-2.64889e-09,135.41)">
                    <g>
                        <g transform="matrix(1,0,0,1,-4404.3,-113.972)">
                            <g>
                                <g transform="matrix(0.938493,0,0,1,4512.18,-55.0198)">
                                    <path d="M1891.08,1837.37C1894.78,1808.07 1895.37,1790.1 1895.37,1790.1C1888.7,1807.25 1880.98,1823.7 1872.4,1839.45C1834.65,1843.36 1795.19,1845.68 1753.94,1846.19C1711.03,1845.66 1670.06,1843.17 1630.94,1838.97C1618.03,1815.01 1606.98,1789.59 1598.41,1762.71C1598.41,1762.71 1597.79,1791.3 1602.25,1835.55C1544.88,1827.99 1491.62,1816.7 1442.18,1802.46C1347.87,1685.28 1312.11,1544.34 1302.56,1419.46C1385.36,1574.74 1556.48,1681.45 1753.94,1681.45C1951.4,1681.45 2122.51,1574.74 2205.31,1419.46C2195.76,1544.34 2160,1685.28 2065.69,1802.46C2012.1,1817.89 1954.03,1829.87 1891.08,1837.37ZM1199.35,1694.7C1155.09,1666.99 1115.69,1637.1 1080.56,1606.5C1074.84,1541.8 1077.97,1490.9 1079.49,1472.72C1079.88,1468.02 1080.17,1465.51 1080.17,1465.51C1100.64,1558.35 1150.96,1636.9 1206.86,1699.36C1204.34,1697.81 1201.83,1696.26 1199.35,1694.7ZM1554.93,1225.65C1552.32,1225.74 1549.87,1226.88 1548.22,1228.78C1546.58,1230.69 1545.89,1233.17 1546.34,1235.59C1547.37,1241.2 1547.9,1247.05 1547.9,1253.05C1547.9,1296.3 1520.36,1331.4 1486.45,1331.4C1452.54,1331.4 1425.8,1296.29 1425.01,1253.05C1423.29,1159.73 1578.18,1128.57 1658.12,1198.82C1663.74,1203.79 1665.39,1211.55 1662.24,1218.16C1659.09,1224.77 1651.83,1228.79 1644.14,1228.17C1619.97,1226.3 1587.82,1224.72 1554.93,1225.65ZM1973.99,1225.65C1971.38,1225.74 1968.93,1226.88 1967.28,1228.78C1965.63,1230.69 1964.94,1233.17 1965.39,1235.59C1966.42,1241.2 1966.95,1247.05 1966.95,1253.05C1966.95,1296.3 1939.42,1331.4 1905.51,1331.4C1871.6,1331.4 1844.86,1296.29 1844.07,1253.05C1842.35,1159.73 1997.24,1128.57 2077.18,1198.82C2082.8,1203.79 2084.45,1211.55 2081.3,1218.16C2078.15,1224.77 2070.89,1228.79 2063.2,1228.17C2039.03,1226.3 2006.87,1224.72 1973.99,1225.65Z" style="fill:rgb(21,65,109);"/>
                                </g>
                                <g transform="matrix(1.7284,-0.770756,0.407277,0.913305,3122,1008.27)">
                                    <path d="M1071.71,1352.73C1072.9,1348.59 1073.57,1346.4 1073.57,1346.4C1062.86,1439.02 1068.74,1529.99 1080.62,1608.4C1082.7,1622.14 1084.97,1635.49 1087.36,1648.39C1083.85,1632.78 1080.81,1617.06 1078.22,1601.28C1064.14,1559.05 1052.72,1516.69 1043.4,1475.32C1054.74,1414.04 1067.11,1368.75 1071.71,1352.73Z" style="fill:rgb(8,26,44);"/>
                                </g>
                                <g transform="matrix(-1.77397,-0.659114,-0.348284,0.937389,9162.77,832.998)">
                                    <path d="M1081.96,1621.33C1083.04,1626.67 1084.17,1632 1085.36,1637.31C1084.61,1633.07 1083.88,1628.79 1083.16,1624.46C1082.76,1623.42 1082.36,1622.38 1081.96,1621.33Z" style="fill:rgb(8,26,44);"/>
                                </g>
                                <g transform="matrix(1,0,0,1,4404.3,0)">
                                    <path d="M2274.42,1639.68C2270.64,1643.98 2266.78,1648.23 2262.83,1652.42C2265.63,1648.94 2268.42,1645.41 2271.19,1641.82C2272.27,1641.11 2273.35,1640.4 2274.42,1639.68ZM1989.93,1811.36C1954.1,1821.82 1915.64,1830.35 1874.45,1836.77C1878.21,1816.15 1880.83,1797.7 1882.65,1782.35C1886.12,1753.05 1886.67,1735.08 1886.67,1735.08C1880.41,1752.23 1873.17,1768.68 1865.11,1784.43C1854.63,1804.93 1842.78,1824.26 1829.91,1842.46C1777.67,1847.61 1725.05,1847.43 1672.84,1841.94C1660.38,1823.66 1648.81,1804.33 1638.51,1783.95C1626.39,1759.99 1616.02,1734.57 1607.98,1707.69C1607.98,1707.69 1607.4,1736.28 1611.58,1780.53C1613.1,1796.59 1615.25,1814.72 1618.28,1834.29C1582.77,1828.21 1549.35,1820.53 1517.95,1811.36C1496.96,1791.09 1478.17,1769.69 1461.36,1747.44C1372.85,1630.26 1339.28,1489.32 1330.32,1364.44C1408.03,1519.72 1568.62,1626.43 1753.94,1626.43C1939.25,1626.43 2099.84,1519.72 2177.55,1364.44C2168.59,1489.32 2135.03,1630.26 2046.52,1747.44C2029.71,1769.69 2010.91,1791.09 1989.93,1811.36ZM1268.44,1675.67C1256.02,1664.11 1244.36,1652.1 1233.46,1639.68C1176.62,1574.96 1140.16,1499.13 1120.97,1417.7C1121.34,1413 1121.61,1410.49 1121.61,1410.49C1140.83,1503.33 1188.04,1581.88 1240.51,1644.34C1249.7,1655.28 1259.05,1665.73 1268.44,1675.67ZM1409.4,695.819C1435.76,707.68 1447.51,738.66 1435.65,765.015L1410.14,821.702C1398.28,848.057 1367.3,859.808 1340.94,847.947L1340.94,847.947C1314.59,836.086 1302.84,805.106 1314.7,778.751L1340.21,722.064C1352.07,695.709 1383.05,683.958 1409.4,695.819L1409.4,695.819ZM1502.43,814.328C1517.74,821.219 1524.57,839.219 1517.68,854.531L1502.86,887.47C1497.79,898.733 1486.71,905.405 1475.11,905.405C1470.94,905.405 1466.7,904.542 1462.65,902.719L1462.65,902.718C1447.34,895.827 1440.51,877.827 1447.4,862.515L1462.22,829.576C1469.11,814.263 1487.11,807.436 1502.43,814.327L1502.43,814.328ZM1567.17,1170.63C1564.72,1170.72 1562.42,1171.86 1560.88,1173.77C1559.33,1175.67 1558.68,1178.15 1559.11,1180.57C1560.07,1186.18 1560.57,1192.03 1560.57,1198.04C1560.57,1241.28 1534.73,1276.38 1502.9,1276.38C1471.08,1276.38 1445.99,1241.27 1445.24,1198.04C1443.63,1104.7 1588.99,1073.55 1664.02,1143.8C1669.29,1148.77 1670.84,1156.53 1667.88,1163.14C1664.92,1169.75 1658.11,1173.77 1650.89,1173.15C1628.21,1171.28 1598.03,1169.7 1567.17,1170.63ZM1960.46,1170.63C1958,1170.72 1955.71,1171.86 1954.16,1173.77C1952.61,1175.67 1951.97,1178.15 1952.39,1180.57C1953.35,1186.18 1953.85,1192.03 1953.85,1198.04C1953.85,1241.28 1928.01,1276.38 1896.19,1276.38C1864.36,1276.38 1839.27,1241.27 1838.52,1198.04C1836.91,1104.7 1982.27,1073.55 2057.3,1143.8C2062.57,1148.77 2064.12,1156.53 2061.16,1163.14C2058.21,1169.75 2051.39,1173.77 2044.17,1173.15C2021.5,1171.28 1991.32,1169.7 1960.46,1170.63Z" style="fill:rgb(8,26,44);"/>
                                </g>
                                <g transform="matrix(1,0,0,0.856058,4416.04,190.137)">
                                    <path d="M1948.71,1145.36C1946.26,1145.46 1943.96,1146.79 1942.41,1149.02C1940.87,1151.25 1940.22,1154.15 1940.64,1156.97C1941.61,1163.53 1942.11,1170.36 1942.11,1177.37C1942.11,1227.88 1916.27,1268.89 1884.44,1268.89C1852.61,1268.89 1827.52,1227.88 1826.78,1177.37C1825.16,1068.35 1970.53,1031.95 2045.55,1114.02C2050.82,1119.82 2052.37,1128.89 2049.42,1136.61C2046.46,1144.33 2039.64,1149.03 2032.43,1148.31C2009.75,1146.12 1979.57,1144.28 1948.71,1145.36Z" style="fill:rgb(21,65,109);"/>
                                </g>
                                <g transform="matrix(1,0,0,0.856058,4022.76,190.137)">
                                    <path d="M1948.71,1145.36C1946.26,1145.46 1943.96,1146.79 1942.41,1149.02C1940.87,1151.25 1940.22,1154.15 1940.64,1156.97C1941.61,1163.53 1942.11,1170.36 1942.11,1177.37C1942.11,1227.88 1916.27,1268.89 1884.44,1268.89C1852.61,1268.89 1827.52,1227.88 1826.78,1177.37C1825.16,1068.35 1970.53,1031.95 2045.55,1114.02C2050.82,1119.82 2052.37,1128.89 2049.42,1136.61C2046.46,1144.33 2039.64,1149.03 2032.43,1148.31C2009.75,1146.12 1979.57,1144.28 1948.71,1145.36Z" style="fill:rgb(21,65,109);"/>
                                </g>
                                <g transform="matrix(0.532695,0.239724,-0.346625,0.770242,5355.38,-236.021)">
                                    <path d="M1370.13,783.374C1419.61,783.374 1459.71,811.112 1459.71,845.329C1459.71,868.784 1459.71,895.471 1459.71,918.926C1459.71,953.142 1419.61,980.881 1370.13,980.881C1370.13,980.881 1370.13,980.881 1370.13,980.881C1320.65,980.881 1280.54,953.142 1280.54,918.926C1280.54,895.471 1280.54,868.784 1280.54,845.329C1280.54,811.112 1320.65,783.374 1370.13,783.374C1370.13,783.374 1370.13,783.374 1370.13,783.374Z" style="fill:white;"/>
                                </g>
                                <g transform="matrix(0.309511,0.139287,-0.201399,0.447533,5640.43,272.902)">
                                    <path d="M1370.13,783.374C1419.61,783.374 1459.71,811.111 1459.71,845.327C1459.71,868.783 1459.71,895.472 1459.71,918.928C1459.71,953.144 1419.61,980.881 1370.13,980.881C1370.13,980.881 1370.13,980.881 1370.12,980.881C1320.65,980.881 1280.54,953.144 1280.54,918.928C1280.54,895.472 1280.54,868.783 1280.54,845.327C1280.54,811.111 1320.65,783.374 1370.12,783.374C1370.13,783.374 1370.13,783.374 1370.13,783.374Z" style="fill:white;"/>
                                </g>
                            </g>
                        </g>
                        <g transform="matrix(1,0,0,1,-15.4987,-2782.2)">
                            <path d="M1137.48,4219.71C1123.41,4206.65 1110.08,4193.46 1097.43,4180.26C1010.41,4089.39 1089.84,3855.89 1154.5,3706.53C1244.14,3399.36 1496.2,3124.64 1769.44,3134.07C2042.67,3124.64 2294.73,3399.36 2384.37,3706.53C2449.03,3855.89 2528.46,4089.39 2441.44,4180.26C2431,4191.15 2420.1,4202.03 2408.71,4212.84C2410.89,4155.21 2406.94,4107.01 2403.82,4079.76C2402.06,4064.42 2400.56,4055.72 2400.56,4055.72C2386.38,4156.09 2339.22,4242.18 2286.69,4310.05C2283.92,4313.63 2281.13,4317.17 2278.33,4320.65C2213.27,4389.72 2123.64,4445.1 2005.42,4479.59C2026.41,4459.32 2045.21,4437.92 2062.02,4415.66C2150.53,4298.49 2184.09,4157.54 2193.05,4032.67C2205.7,3856.31 2169.29,3712.01 2169.29,3712.01L1952.29,3712.01C1956.31,3693.63 1960.76,3653.89 1955.2,3573.63C1954.48,3563.19 1953.58,3552.06 1952.5,3540.2C1952.5,3540.2 1948.99,3553.22 1941.41,3573.63C1928.7,3607.82 1904.57,3662.75 1866.33,3712.01L1623.45,3712.01C1616.61,3653.34 1624.2,3604.14 1631.58,3573.63C1636.73,3552.39 1641.77,3540.2 1641.77,3540.2C1633.64,3551.82 1626.26,3562.97 1619.55,3573.63C1576.85,3641.55 1561.74,3689.63 1556.55,3712.01L1369.58,3712.01C1369.58,3712.01 1333.17,3856.31 1345.82,4032.67C1354.78,4157.54 1388.35,4298.49 1476.85,4415.66C1493.67,4437.92 1512.46,4459.32 1533.45,4479.59C1428.81,4449.06 1346.57,4402.17 1283.94,4343.9C1274.55,4333.95 1265.2,4323.51 1256.01,4312.56C1203.54,4250.11 1156.32,4171.56 1137.11,4078.71C1137.11,4078.71 1136.84,4081.22 1136.47,4085.92C1135.04,4104.1 1132.11,4155 1137.48,4219.71ZM1490.61,3573.63C1502.21,3573.63 1513.29,3566.96 1518.35,3555.7L1533.18,3522.76C1540.07,3507.45 1533.24,3489.45 1517.93,3482.55L1517.92,3482.55C1502.61,3475.66 1484.61,3482.49 1477.72,3497.8L1462.9,3530.74C1456.01,3546.05 1462.84,3564.05 1478.15,3570.94L1478.15,3570.95C1482.2,3572.77 1486.44,3573.63 1490.61,3573.63ZM1424.9,3364.05L1424.9,3364.04C1398.55,3352.18 1367.57,3363.93 1355.7,3390.29L1330.19,3446.98C1318.33,3473.33 1330.08,3504.31 1356.44,3516.17L1356.44,3516.17C1382.8,3528.03 1413.78,3516.28 1425.64,3489.93L1451.15,3433.24C1463.01,3406.89 1451.26,3375.91 1424.9,3364.05Z" style="fill:rgb(21,65,109);"/>
                        </g>
                        <g transform="matrix(1,0,0,1,-15.4987,-2782.2)">
                            <path d="M1955.2,3573.63C1960.76,3653.89 1956.31,3693.63 1952.29,3712.01L2169.29,3712.01C2169.29,3712.01 2205.7,3856.31 2193.05,4032.67C2115.34,4187.94 1954.75,4294.65 1769.44,4294.65C1584.12,4294.65 1423.53,4187.94 1345.82,4032.67C1333.17,3856.31 1369.58,3712.01 1369.58,3712.01L1556.55,3712.01C1561.74,3689.63 1576.85,3641.55 1619.55,3573.63C1626.26,3562.97 1633.64,3551.82 1641.77,3540.2C1641.77,3540.2 1636.73,3552.39 1631.58,3573.63C1624.2,3604.14 1616.61,3653.34 1623.45,3712.01L1866.33,3712.01C1904.57,3662.75 1928.7,3607.82 1941.41,3573.63C1948.99,3553.22 1952.5,3540.2 1952.5,3540.2C1953.58,3552.06 1954.48,3563.19 1955.2,3573.63ZM1975.96,3838.86C2006.82,3837.93 2036.99,3839.51 2059.67,3841.38C2066.89,3842 2073.71,3837.98 2076.66,3831.37C2079.62,3824.76 2078.07,3817 2072.8,3812.03C1997.77,3741.78 1852.41,3772.93 1854.02,3866.26C1854.77,3909.5 1879.86,3944.61 1911.68,3944.61C1943.51,3944.61 1969.35,3909.5 1969.35,3866.26C1969.35,3860.26 1968.85,3854.41 1967.89,3848.8C1967.47,3846.38 1968.11,3843.9 1969.66,3841.99C1971.21,3840.08 1973.5,3838.94 1975.96,3838.86ZM1582.67,3838.86C1613.53,3837.93 1643.71,3839.51 1666.39,3841.38C1673.61,3842 1680.42,3837.98 1683.38,3831.37C1686.34,3824.76 1684.79,3817 1679.52,3812.03C1604.49,3741.78 1459.13,3772.93 1460.74,3866.26C1461.48,3909.5 1486.58,3944.61 1518.4,3944.61C1550.23,3944.61 1576.07,3909.5 1576.07,3866.26C1576.07,3860.26 1575.57,3854.41 1574.6,3848.8C1574.18,3846.38 1574.83,3843.9 1576.38,3841.99C1577.92,3840.08 1580.22,3838.94 1582.67,3838.86Z" style="fill:white;"/>
                        </g>
                    </g>
                    <g transform="matrix(1,0,0,1,-15.4987,-2782.2)">
                        <path d="M2408.71,4212.84C2373.92,4245.83 2334.55,4278.13 2289.92,4307.91C2288.85,4308.62 2287.77,4309.34 2286.69,4310.05C2339.22,4242.18 2386.38,4156.09 2400.56,4055.72C2400.56,4055.72 2402.06,4064.42 2403.82,4079.76C2406.94,4107.01 2410.89,4155.21 2408.71,4212.84Z" style="fill:rgb(8,26,44);"/>
                    </g>
                </g>
            </g>
        </g>
    </g>
</svg>
